<svg xmlns="http://www.w3.org/2000/svg" width="100" height="100" baseProfile="basic"><g fill="#B0BFCC"><circle cx="20.355" cy="27.682" r="9.126"/><path d="M35.058 46.399c-4.017-4.104-9.126-6.577-14.703-6.577-6.102 0-11.646 2.963-15.81 7.789C5.658 56.094 9.292 63.778 14.679 69.9h.02l.002.024a41.529 41.529 0 0 0 1.762 1.895c2.83-7.968 9.15-20.872 18.595-25.42z"/><circle cx="81.69" cy="28.433" r="9.125"/><path d="M81.69 40.575c-5.579 0-10.684 2.473-14.704 6.577 9.444 4.547 15.765 17.452 18.598 25.419a39.887 39.887 0 0 0 1.759-1.894l.003-.025h.021a41.94 41.94 0 0 0 10.134-22.29c-4.163-4.826-9.708-7.787-15.811-7.787z"/><circle cx="51.023" cy="28.306" r="12.504"/><path d="M60.577 47.299c-3.364-1.513-6.979-2.359-10.758-2.359-13.075 0-25.994 16.486-31.22 31.585 8.645 7.388 19.854 11.855 32.116 11.855 12.182 0 23.33-4.411 31.953-11.714-3.619-11.395-13.342-25.434-22.091-29.367z"/></g><g fill="#E6EFFB"><circle cx="18.31" cy="24.499" r="9.126"/><path d="M33.012 43.217c-4.017-4.104-9.126-6.577-14.703-6.577-6.102 0-11.646 2.963-15.81 7.789 1.113 8.483 4.748 16.169 10.134 22.29h.021l.001.024a43.073 43.073 0 0 0 1.762 1.891c2.831-7.964 9.151-20.869 18.595-25.417z"/><circle cx="79.645" cy="25.251" r="9.125"/><path d="M79.645 37.393c-5.578 0-10.683 2.472-14.702 6.577 9.444 4.546 15.763 17.454 18.597 25.417a39.819 39.819 0 0 0 1.759-1.891l.004-.028h.019A41.941 41.941 0 0 0 95.456 45.18c-4.163-4.826-9.709-7.787-15.811-7.787z"/><circle cx="48.979" cy="25.124" r="12.504"/><path d="M58.532 44.117c-3.364-1.513-6.979-2.359-10.758-2.359-13.075 0-25.994 16.487-31.221 31.586 8.645 7.385 19.854 11.855 32.116 11.855 12.181 0 23.331-4.415 31.954-11.714-3.618-11.398-13.342-25.435-22.091-29.368z"/></g></svg>