<svg xmlns="http://www.w3.org/2000/svg" width="100" height="100" baseProfile="basic"><g fill="#B0BFCC"><path d="M97.29 57.05c-.652-2.526-3.581-4.396-6.604-4.242-1.906.096-3.531 1.075-5.001 2.465V32.746c0-1.741-1.565-3.155-3.5-3.155h-3.352c-1.931 0-3.498 1.414-3.498 3.155v34.617c0 .176.026.348.068.518-1.013 4.736-1.903 7.841-7.344 9.443-4.993 1.463-17.445 1.297-17.445-1.889 0-3.872 16.337-1.736 18.856-4.242 1.808-1.798 1.655-5.279 1.655-5.614V46.118c0-1.861-1.564-3.371-3.502-3.371h-3.348c-1.935 0-3.502 1.51-3.502 3.371v14.543a64.377 64.377 0 0 0-3.937.042v-9.442c0-1.482-1.563-2.682-3.498-2.682h-3.352c-1.931 0-3.498 1.199-3.498 2.682v9.713a18.614 18.614 0 0 1-1.531-.153c-.798-.113-1.619-.368-2.476-.663v-4.524c0-1.48-1.562-2.68-3.496-2.68H35.63c-1.931 0-3.498 1.199-3.498 2.68v3.063C19.507 60.48 13.691 72.611 5.829 79.679c3.439 2.578 6.007 5.536 9.902 9.428 1.788 1.791 8.207 9.505 9.899 9.427 1.82-.074 4.59-5.168 6.599-5.652 9.458-2.279 22.715 2.22 34.417 0 5.592-1.061 10.36-7.562 13.199-10.846 1.973-2.275 4.132-4.665 6.599-7.538 4.453-5.192 12.453-11.167 10.846-17.448z"/><path d="M31.862 44.836c.777 0 1.554-.296 2.152-.886l12.565-12.413 10.529 10.506a3 3 0 0 0 2.211.894 3.061 3.061 0 0 0 2.182-.964l23.803-25.325 1.875 1.958a1.753 1.753 0 0 0 1.707.479 1.734 1.734 0 0 0 1.248-1.259l2.751-10.855a1.73 1.73 0 0 0-.43-1.633 1.741 1.741 0 0 0-1.61-.509L79.831 7.062a1.746 1.746 0 1 0-.915 2.922l2.145 2.237-21.863 23.261L48.75 25.054a3.061 3.061 0 0 0-4.314-.01L29.71 39.595a3.062 3.062 0 0 0 2.152 5.241z"/></g><g fill="#E6EFFB"><path d="M93.961 53.721c-.651-2.525-3.581-4.395-6.604-4.242-1.907.096-3.532 1.075-5.002 2.464V29.416c0-1.741-1.565-3.155-3.499-3.155h-3.352c-1.932 0-3.498 1.414-3.498 3.155v34.619c0 .176.025.349.068.518-1.013 4.736-1.903 7.841-7.344 9.443-4.993 1.463-17.446 1.297-17.446-1.889 0-3.872 16.337-1.736 18.856-4.242 1.808-1.798 1.655-5.279 1.655-5.614V42.79c0-1.861-1.563-3.371-3.501-3.371h-3.349c-1.935 0-3.502 1.51-3.502 3.371v14.543a64.392 64.392 0 0 0-3.937.043v-9.443c0-1.482-1.563-2.682-3.498-2.682H46.66c-1.931 0-3.498 1.2-3.498 2.682v9.712a18.67 18.67 0 0 1-1.531-.152c-.798-.114-1.619-.368-2.475-.664v-4.524c0-1.48-1.562-2.68-3.497-2.68h-3.355c-1.931 0-3.498 1.2-3.498 2.68v3.063C16.178 57.151 10.362 69.282 2.5 76.35c3.439 2.578 6.008 5.536 9.902 9.428 1.788 1.791 8.207 9.506 9.899 9.428 1.82-.075 4.59-5.169 6.599-5.653 9.458-2.279 22.715 2.22 34.417 0 5.591-1.06 10.36-7.562 13.198-10.845 1.973-2.276 4.132-4.665 6.599-7.539 4.454-5.192 12.454-11.166 10.847-17.448z"/><path d="M28.533 41.508c.777 0 1.554-.296 2.152-.886L43.25 28.208l10.529 10.507a3.006 3.006 0 0 0 2.211.894 3.061 3.061 0 0 0 2.182-.964L81.974 13.32l1.876 1.958a1.75 1.75 0 0 0 1.706.479 1.738 1.738 0 0 0 1.249-1.26l2.75-10.854a1.733 1.733 0 0 0-.43-1.634 1.741 1.741 0 0 0-1.61-.509L76.502 3.733a1.746 1.746 0 1 0-.915 2.922l2.145 2.237-21.863 23.261-10.448-10.428a3.06 3.06 0 0 0-4.313-.01L26.381 36.266a3.063 3.063 0 0 0 2.152 5.242z"/></g></svg>