<svg xmlns="http://www.w3.org/2000/svg" width="100" height="100" baseProfile="basic"><path fill="#B0BFCC" d="M97.338 75.591L78.624 29.463c-.085-1.162-1.021-2.372-2.177-2.372h-23.07V14.92a3.057 3.057 0 0 0-3.055-3.056h-.658a3.056 3.056 0 0 0-3.054 3.056v12.17H25.047c-1.212 0-2.192 1.328-2.192 2.537 0 .067.014.135.02.203-.002.055-.021.106-.02.161L5.599 75.505a2.18 2.18 0 0 0-.112 1.143c.026.15.66 3.768 3.569 7.329 2.647 3.244 7.756 7.114 17.054 7.114 18.078 0 19.958-14.278 19.974-14.423a2.182 2.182 0 0 0-.145-1.077L28.32 32.167h45.111L56.998 75.505a2.2 2.2 0 0 0-.112 1.143c.027.15.663 3.768 3.569 7.329 2.646 3.244 7.757 7.114 17.054 7.114 18.077 0 19.959-14.278 19.976-14.423a2.183 2.183 0 0 0-.147-1.077zm-35.897.557l15.166-39.995 16.228 39.995H61.441zM25.206 36.153l16.226 39.995h-31.39l15.164-39.995z"/><path fill="#E6EFFB" d="M94.382 72.636L75.668 26.507c-.084-1.162-1.021-2.373-2.177-2.373h-23.07v-12.17a3.057 3.057 0 0 0-3.055-3.055h-.657a3.057 3.057 0 0 0-3.055 3.055v12.17H22.092c-1.212 0-2.192 1.328-2.192 2.537 0 .068.014.135.02.203-.002.055-.021.106-.02.161L2.643 72.549a2.193 2.193 0 0 0-.113 1.144c.027.149.66 3.766 3.569 7.328 2.647 3.244 7.756 7.115 17.055 7.115 18.077 0 19.957-14.279 19.974-14.424a2.198 2.198 0 0 0-.145-1.076L25.364 29.211h45.111L54.043 72.549a2.182 2.182 0 0 0-.112 1.144c.027.149.662 3.766 3.568 7.328 2.646 3.244 7.758 7.115 17.055 7.115 18.076 0 19.959-14.279 19.976-14.424a2.188 2.188 0 0 0-.148-1.076zm-35.896.556l15.165-39.995 16.228 39.995H58.486zM22.25 33.197l16.226 39.995H7.085L22.25 33.197z"/></svg>