<svg xmlns="http://www.w3.org/2000/svg" width="100" height="100" baseProfile="basic"><path fill="#B0BFCC" d="M67.447 58.064c3.826-4.937 5.472-10.548 5.032-17.157-.654-9.875-7.243-16.638-13.191-19.676-3.037-1.548-6.026-2.329-9.692-2.532L47.82 18.6v4.005h-.016V71.46h.016v1.477l.946.461c1.096.533 2.461 1.02 3.779 1.491.731.26 1.446.516 2.078.767l.345.143c.729.308 1.729.729 2.708.729 1.65-.002 2.755-1.158 2.811-2.948.016-.453-.05-.84-.165-1.169.813-1.089.729-2.606.652-3.958-.032-.567-.065-1.155-.023-1.592.238-2.53 1.752-3.973 3.669-5.799.952-.909 1.938-1.848 2.827-2.998zm-7.467-1.233c-.534.458-1.087.933-1.634 1.5-2.277 2.358-3.455 5.319-3.577 9.019-.336 0-.692-.021-1.044-.038V25.678c2.771.925 4.93 2.412 6.401 3.714 4.554 4.027 6.635 9.107 6.186 15.102-.329 4.375-1.866 7.8-4.984 11.103-.392.416-.856.813-1.348 1.234zm-2.304 17.991v.021-.021zM34.338 20.231l-1.375.301-2.557 7.262-6.886-3.306-1.188.772a36.7 36.7 0 0 0-11.059 11.164l-.745 1.172 3.277 6.965-7.215 2.585-.296 1.373a37.473 37.473 0 0 0-.853 7.883c0 2.604.286 5.254.85 7.877l.294 1.373 7.221 2.59-3.277 6.96.745 1.173A36.625 36.625 0 0 0 22.33 87.539l1.188.771 6.889-3.304 2.556 7.261 1.373.303a36.63 36.63 0 0 0 6.913.839l2.591.067v-20.58l-2.411-.107c-8.706-.394-15.525-7.593-15.525-16.392 0-8.794 6.819-15.988 15.525-16.38l2.411-.108V19.325l-2.591.067c-2.32.06-4.646.342-6.911.839zm22.295 58.682c-1 .146-1.608.645-2.005 1.258l-6.823-1.306v10.271h.023v6.028l1.902-.25c4.637-.61 8.373-3.798 9.995-8.526.547-1.599 1.278-4.54.035-6.279-.672-.945-1.702-1.398-3.127-1.196zm37.805-39.384H79.634c-1.688 0-3.062 1.705-3.062 3.802s1.373 3.802 3.062 3.802h14.805c1.688 0 3.062-1.705 3.062-3.802s-1.374-3.802-3.063-3.802zM71.952 62.841c-1.123-1.122-3.33-.835-4.774.605-1.505 1.509-1.771 3.604-.604 4.774l9.683 9.68c.465.467 1.122.724 1.844.724h.002c1.019 0 2.087-.483 2.93-1.327 1.504-1.505 1.771-3.602.606-4.774l-9.687-9.682zm18.825-6.606l-12.594-5.373c-1.474-.625-3.392.446-4.209 2.344-.831 1.964-.294 4.008 1.224 4.654l12.594 5.37c.298.128.616.192.947.192 1.303 0 2.612-1.019 3.259-2.535.834-1.957.299-4.001-1.221-4.652zM70.111 24.247c.723 0 1.376-.255 1.843-.721l9.685-9.685c1.162-1.17.896-3.267-.607-4.772-1.441-1.442-3.652-1.725-4.775-.604l-9.683 9.682c-1.166 1.168-.9 3.264.606 4.774.844.843 1.912 1.326 2.931 1.326zm3.866 8.914c.649 1.514 1.96 2.533 3.265 2.533.327 0 .645-.065.942-.191l12.595-5.37c1.519-.651 2.054-2.695 1.22-4.655-.811-1.899-2.735-2.967-4.204-2.342l-12.597 5.37c-1.517.649-2.054 2.693-1.221 4.655z"/><path fill="#E6EFFB" d="M64.504 55.122c3.826-4.936 5.473-10.548 5.033-17.156-.655-9.875-7.242-16.638-13.191-19.676-3.037-1.548-6.026-2.329-9.691-2.532l-1.776-.098v4.005h-.017v48.853h.017v1.477l.946.463c1.096.531 2.46 1.02 3.779 1.491.729.258 1.445.514 2.076.767l.345.141c.73.308 1.729.729 2.71.729 1.648-.003 2.755-1.157 2.809-2.947a3.148 3.148 0 0 0-.163-1.169c.813-1.089.727-2.608.651-3.958-.031-.569-.065-1.155-.022-1.592.238-2.531 1.752-3.973 3.668-5.8.953-.91 1.938-1.849 2.826-2.998zm-7.466-1.232c-.534.457-1.086.931-1.635 1.5-2.275 2.357-3.453 5.319-3.577 9.017-.335 0-.691-.021-1.042-.037V22.736c2.77.925 4.93 2.412 6.4 3.714 4.553 4.028 6.636 9.108 6.185 15.102-.327 4.375-1.864 7.799-4.984 11.103-.391.416-.856.813-1.347 1.235zm-2.304 17.991v.021-.021zM31.396 17.289l-1.375.301-2.557 7.262-6.886-3.306-1.189.773A36.686 36.686 0 0 0 8.331 33.483l-.746 1.172 3.278 6.965-7.217 2.583-.296 1.374a37.599 37.599 0 0 0-.85 7.882c0 2.605.286 5.254.849 7.876l.295 1.374 7.221 2.591-3.278 6.96.746 1.172a36.633 36.633 0 0 0 11.055 11.164l1.189.772 6.889-3.304 2.556 7.259 1.373.305a36.95 36.95 0 0 0 6.913.839l2.591.066v-20.58l-2.411-.106c-8.706-.394-15.525-7.592-15.525-16.391 0-8.794 6.819-15.989 15.525-16.381l2.411-.107V16.383l-2.591.067a36.918 36.918 0 0 0-6.912.839zm22.295 58.683c-1 .144-1.609.644-2.006 1.258l-6.822-1.307v10.27h.022v6.029l1.903-.249c4.636-.612 8.373-3.798 9.993-8.526.549-1.601 1.278-4.542.037-6.279-.673-.946-1.702-1.4-3.127-1.196zm37.804-39.385H76.692c-1.689 0-3.063 1.705-3.063 3.802s1.373 3.802 3.063 3.802h14.803c1.689 0 3.063-1.705 3.063-3.802s-1.373-3.802-3.063-3.802zM69.011 59.899c-1.123-1.124-3.332-.836-4.774.605-1.505 1.509-1.772 3.603-.605 4.774l9.684 9.678c.465.469 1.12.725 1.844.725 1.021 0 2.089-.482 2.931-1.327 1.505-1.506 1.772-3.603.605-4.774l-9.685-9.681zm18.825-6.607l-12.594-5.371c-1.474-.625-3.393.445-4.209 2.344-.833 1.963-.296 4.007 1.224 4.653l12.594 5.372c.296.126.615.192.945.192 1.304 0 2.614-1.02 3.261-2.537.833-1.959.298-4.001-1.221-4.653zM67.17 21.305c.721 0 1.376-.256 1.841-.721l9.687-9.684c1.161-1.171.894-3.267-.608-4.772-1.442-1.442-3.651-1.724-4.774-.603l-9.684 9.682c-1.167 1.167-.899 3.264.605 4.774.844.842 1.912 1.324 2.933 1.324zm3.863 8.915c.649 1.514 1.962 2.532 3.267 2.532.327 0 .644-.064.942-.191l12.594-5.371c1.52-.65 2.054-2.694 1.221-4.655-.811-1.9-2.735-2.968-4.206-2.342l-12.597 5.37c-1.517.651-2.054 2.695-1.221 4.657z"/></svg>