<svg xmlns="http://www.w3.org/2000/svg" width="105.167" height="100"><path fill="#B0BFCC" d="M104.952 23.217a2.62 2.62 0 0 0-2.317-1.579l-11.108-.361-1.354-11.78c-.11-.987-.812-1.826-1.747-2.163-.934-.334-2.056-.115-2.775.576l-8.68 8.21c-.512.494-1.103 1.171-1.103 1.882v12.74l-3.576 3.282c-6.275-5.62-14.554-9.046-23.622-9.046-19.547 0-35.449 15.902-35.449 35.449 0 19.545 15.902 35.447 35.449 35.447 19.547 0 35.449-15.902 35.449-35.447a35.257 35.257 0 0 0-7.112-21.273l3.533-3.241 12.624 1.253a2.608 2.608 0 0 0 2.217-.867l9.132-10.319c.67-.756.841-1.834.439-2.763zm-27.8 37.211c0 15.705-12.777 28.482-28.481 28.482-15.705 0-28.481-12.777-28.481-28.482 0-15.702 12.776-28.481 28.481-28.481 7.037 0 13.473 2.58 18.449 6.824l-6.934 6.362c-3.211-2.423-7.191-3.879-11.515-3.879-10.572 0-19.177 8.603-19.177 19.174 0 10.575 8.604 19.179 19.177 19.179s19.174-8.604 19.174-19.179c0-3.734-1.091-7.213-2.945-10.162l6.927-6.356c3.338 4.664 5.325 10.358 5.325 16.518zm-16.274 0c0 6.732-5.477 12.211-12.207 12.211-6.732 0-12.209-5.479-12.209-12.211 0-6.729 5.477-12.206 12.209-12.206a12.1 12.1 0 0 1 6.251 1.743l-8.607 7.897a3.484 3.484 0 0 0 4.711 5.133l8.607-7.897a12.078 12.078 0 0 1 1.245 5.33z"/><path fill="#E6EFFB" d="M101.896 20.161a2.62 2.62 0 0 0-2.317-1.579l-11.108-.361-1.354-11.78c-.11-.987-.812-1.826-1.747-2.163-.933-.334-2.055-.115-2.773.576l-8.68 8.21c-.512.494-1.103 1.171-1.103 1.882v12.74l-3.576 3.282c-6.275-5.62-14.555-9.046-23.622-9.046-19.547 0-35.449 15.902-35.449 35.449 0 19.545 15.902 35.447 35.449 35.447 19.547 0 35.449-15.902 35.449-35.447a35.257 35.257 0 0 0-7.112-21.273l3.533-3.241L90.11 34.11a2.608 2.608 0 0 0 2.217-.867l9.132-10.319c.669-.756.84-1.833.437-2.763zM74.097 57.372c0 15.705-12.777 28.482-28.481 28.482-15.705 0-28.481-12.777-28.481-28.482 0-15.702 12.776-28.481 28.481-28.481 7.037 0 13.473 2.58 18.449 6.824l-6.933 6.362c-3.211-2.423-7.192-3.879-11.516-3.879-10.572 0-19.177 8.603-19.177 19.174 0 10.575 8.604 19.179 19.177 19.179S64.79 67.947 64.79 57.372a19.03 19.03 0 0 0-2.945-10.162l6.928-6.356c3.336 4.664 5.324 10.356 5.324 16.518zm-16.275 0c0 6.732-5.476 12.211-12.207 12.211-6.732 0-12.209-5.479-12.209-12.211 0-6.729 5.477-12.206 12.209-12.206a12.1 12.1 0 0 1 6.251 1.743l-8.607 7.897a3.484 3.484 0 0 0 4.711 5.133l8.607-7.898a12.082 12.082 0 0 1 1.245 5.331z"/></svg>