<svg xmlns="http://www.w3.org/2000/svg" width="100" height="100" baseProfile="basic"><g fill="#B0BFCC"><path d="M48.377 56.551L37.446 45.529l-6.144 6.543 17.01 16.635 26.32-26.878-6.217-5.684z"/><path d="M97.317 51.205c-.172-3.123-5.996-3.728-5.912-7.686.063-2.887 3.734-4.051 3.252-7.981-3.063-3.067-8.264-1.454-8.572-6.502-.15-2.459 2.076-4.807.887-6.799-1.42-2.379-4.477-.546-7.684-.889-4.408-.141-1.873-8.366-5.025-9.752-2.498-1.098-5.293 2.712-8.869 1.771-3.486-.917-2.533-6.865-6.209-7.093-2.779-.175-4.895 4.432-7.686 4.432-2.641 0-5.45-4.777-7.981-4.432-3.395.464-3.102 6.435-6.206 7.093-3.599.764-6.341-2.75-8.571-1.771-2.61 1.14-.973 4.386-2.07 7.093-1.786 4.414-8.711.316-10.642 3.548-1.172 1.962 1.112 4.841.886 7.092-.468 4.681-6.067 3.356-8.572 6.209-.21 4.52 3.86 5.272 2.958 9.458-.671 3.105-5.823 3.705-5.618 6.796.176 2.67 4.952 3.381 5.618 6.502.751 3.539-3.031 4.686-2.958 9.162 3.035 3.072 8.263 1.48 8.572 6.506.152 2.461-2.076 4.803-.886 6.799 1.421 2.379 4.478.549 7.686.887 4.363.131 1.91 8.391 5.026 9.754 2.642 1.158 4.745-2.85 8.867-1.77 3.503.914 2.239 6.842 6.205 7.096 2.838.174 4.591-5.008 8.575-4.439 2.482.354 4.84 4.744 7.092 4.439 2.727-.375 3.48-6.516 6.209-7.096 2.789-.592 5.668 3.074 8.574 1.77 3.162-1.422.148-8.613 5.318-9.754 3.393-.742 5.943 1.541 7.391-.887 1.168-1.953-1.111-4.85-.887-7.096.471-4.686 6.023-3.373 8.572-6.209.361-4.061-3.316-5.275-3.252-8.273.086-4.003 6.088-4.855 5.912-7.978zM51.796 80.762c-15.763.086-29.56-11.641-29.56-29.262 0-8.248 3.489-15.014 7.982-19.805 4.531-4.833 10.126-8.409 19.212-9.165 17.198-1.426 31.334 11.739 31.334 28.97.001 18.381-14.544 29.184-28.968 29.262z"/></g><g fill="#E6EFFB"><path d="M45.378 53.552L34.447 42.529l-6.144 6.543 17.01 16.636 26.32-26.879-6.217-5.684z"/><path d="M94.317 48.205c-.172-3.123-5.996-3.728-5.912-7.686.063-2.887 3.734-4.051 3.253-7.981-3.063-3.067-8.264-1.454-8.573-6.502-.15-2.459 2.077-4.807.887-6.799-1.419-2.379-4.476-.546-7.684-.889-4.407-.141-1.873-8.366-5.025-9.752-2.497-1.098-5.292 2.712-8.868 1.771-3.487-.917-2.533-6.865-6.209-7.093-2.78-.175-4.896 4.432-7.686 4.432-2.642 0-5.45-4.777-7.981-4.432-3.395.464-3.102 6.435-6.206 7.093-3.599.764-6.341-2.75-8.571-1.771-2.61 1.14-.973 4.386-2.07 7.093-1.786 4.414-8.711.316-10.642 3.548-1.172 1.962 1.112 4.841.886 7.092-.468 4.681-6.067 3.356-8.572 6.209-.21 4.52 3.86 5.272 2.958 9.458-.671 3.105-5.823 3.705-5.618 6.797.176 2.669 4.952 3.38 5.618 6.502.751 3.538-3.031 4.686-2.958 9.161 3.035 3.073 8.263 1.48 8.572 6.506.152 2.461-2.076 4.803-.886 6.8 1.421 2.378 4.478.548 7.686.886 4.363.131 1.91 8.391 5.026 9.755 2.642 1.157 4.745-2.85 8.867-1.771 3.503.915 2.239 6.843 6.205 7.096 2.838.174 4.591-5.007 8.574-4.439 2.483.354 4.841 4.744 7.093 4.439 2.726-.374 3.479-6.516 6.208-7.096 2.79-.591 5.669 3.075 8.574 1.771 3.162-1.423.149-8.614 5.318-9.755 3.394-.741 5.943 1.541 7.391-.886 1.168-1.954-1.111-4.851-.887-7.097.471-4.686 6.023-3.372 8.573-6.209.36-4.06-3.316-5.274-3.253-8.272.087-4.003 6.088-4.856 5.912-7.979zM48.796 77.763c-15.762.086-29.56-11.642-29.56-29.262 0-8.249 3.489-15.015 7.982-19.805 4.531-4.833 10.126-8.409 19.212-9.165 17.198-1.426 31.334 11.739 31.334 28.97.001 18.38-14.544 29.184-28.968 29.262z"/></g></svg>