<svg width="181" height="40" viewBox="0 0 181 40" fill="none" xmlns="http://www.w3.org/2000/svg">
<path d="M55.8183 4.42588H58.6621L66.7882 24.9283H63.3637L61.1873 19.3553H53.2356L51.0884 24.9283H47.6348L55.8183 4.42588ZM60.5491 16.9572L57.2407 8.15031L53.8162 16.9572H60.5491ZM74.3911 25.2163C73.3653 25.2163 72.4182 25.0093 71.5473 24.5954C70.6867 24.1889 69.9171 23.6145 69.2841 22.9062C68.6331 22.1738 68.1261 21.3263 67.7892 20.4077C67.4307 19.4548 67.2528 18.4297 67.2528 17.3324C67.2528 16.2738 67.4219 15.2777 67.7609 14.3433C68.0809 13.4417 68.5625 12.6054 69.1823 11.8747C69.7771 11.1739 70.5077 10.5994 71.3304 10.1856C72.1527 9.77165 73.0573 9.56469 74.0432 9.56469C75.262 9.56469 76.3356 9.85796 77.265 10.4454C78.1934 11.0328 78.9192 11.7787 79.4414 12.6832V3.84814H82.6339V21.1739C82.6339 21.5403 82.6968 21.8001 82.8225 21.9542C82.9481 22.1083 83.1756 22.1946 83.5049 22.214V24.9283C83.1756 24.9855 82.9101 25.0243 82.7074 25.0437C82.5047 25.063 82.3348 25.0727 82.1994 25.0727C81.5603 25.0727 81.0381 24.9089 80.6319 24.5813C80.4361 24.4291 80.2753 24.2371 80.1602 24.0181C80.0452 23.7991 79.9784 23.5581 79.9645 23.3114L79.907 22.185C79.357 23.1172 78.5652 23.8853 77.6146 24.4087C76.6454 24.9468 75.5709 25.2163 74.3911 25.2163ZM75.1753 22.502C75.6391 22.502 76.1037 22.4245 76.5684 22.2704C77.023 22.1214 77.4532 21.9072 77.8456 21.6345C78.227 21.3705 78.5647 21.049 78.8466 20.6816C79.1263 20.3161 79.3255 19.9216 79.4414 19.498V15.5419C79.2671 15.0611 79.021 14.6181 78.7015 14.2138C78.382 13.8096 78.0191 13.4626 77.6137 13.1746C77.2182 12.8916 76.7831 12.6679 76.3224 12.5106C75.8786 12.3585 75.4127 12.2805 74.9434 12.2799C74.3052 12.2799 73.7193 12.4243 73.1874 12.7132C72.6548 13.0025 72.1861 13.3954 71.8093 13.8686C71.4147 14.3629 71.1057 14.9192 70.895 15.5146C70.6736 16.1258 70.5606 16.7707 70.5613 17.4204C70.5613 18.1135 70.6817 18.7679 70.9242 19.3835C71.1658 20 71.4995 20.5389 71.9252 21.0004C72.3501 21.4619 72.8395 21.8274 73.3909 22.0978C73.9462 22.3683 74.557 22.5067 75.1753 22.502ZM94.9376 12.5687C93.6994 12.6075 92.601 12.8911 91.6433 13.4203C90.6856 13.9505 90.0041 14.7053 89.5978 15.6872V24.9274H86.4053V9.82538H89.3651V13.2037C89.8873 12.1636 90.5697 11.3322 91.4114 10.7061C92.2522 10.0808 93.1568 9.73907 94.1242 9.68094H94.603C94.7287 9.68094 94.8402 9.69151 94.9367 9.71001L94.9376 12.5687ZM96.9689 7.34184V3.84814H100.161V7.34184H96.9689ZM96.9689 24.9274V9.82538H100.161V24.9274H96.9689ZM107.735 25.2163C107.036 25.2227 106.343 25.1003 105.689 24.8552C105.087 24.6317 104.535 24.2934 104.064 23.8591C103.608 23.4351 103.243 22.9245 102.989 22.3576C102.725 21.7667 102.592 21.1264 102.598 20.4799C102.598 19.7683 102.753 19.1228 103.062 18.546C103.371 17.9691 103.812 17.468 104.382 17.0444C104.953 16.6216 105.63 16.2931 106.414 16.0624C107.198 15.8317 108.063 15.7154 109.011 15.7154C109.727 15.7154 110.433 15.7779 111.13 15.903C111.827 16.0289 112.455 16.1963 113.017 16.4085V15.3684C113.017 14.2517 112.698 13.3807 112.06 12.7554C111.421 12.1301 110.502 11.8175 109.303 11.8175C108.484 11.8186 107.672 11.9703 106.908 12.2649C106.125 12.5634 105.317 12.9923 104.486 13.5498L103.499 11.5286C105.453 10.2199 107.485 9.56557 109.594 9.56557C111.683 9.56557 113.308 10.0957 114.469 11.1535C115.63 12.2129 116.211 13.7339 116.211 15.7163V21.1739C116.211 21.8485 116.49 22.1946 117.052 22.214V24.9283C116.742 24.9855 116.476 25.0243 116.254 25.0437C116.032 25.063 115.814 25.0727 115.602 25.0727C114.982 25.0727 114.503 24.9186 114.165 24.6113C113.825 24.3007 113.604 23.8818 113.541 23.4267L113.454 22.4738C112.776 23.3598 111.94 24.0379 110.944 24.51C109.947 24.982 108.876 25.2163 107.735 25.2163ZM108.606 22.8772C109.38 22.8772 110.11 22.738 110.798 22.458C111.484 22.1797 112.022 21.7895 112.408 21.2893C112.815 20.9423 113.017 20.5768 113.017 20.192V18.199C112.458 17.9827 111.88 17.8182 111.291 17.7075C110.702 17.594 110.105 17.5359 109.505 17.534C108.364 17.534 107.43 17.7798 106.705 18.2703C105.98 18.7608 105.617 19.4108 105.617 20.2193C105.617 20.9705 105.897 21.6011 106.459 22.1101C107.02 22.6227 107.735 22.8772 108.606 22.8772ZM128.108 24.148C127.702 24.3409 127.141 24.5575 126.426 24.798C125.71 25.0384 124.946 25.159 124.133 25.159C123.652 25.1619 123.172 25.0939 122.711 24.9574C122.284 24.8318 121.885 24.6258 121.536 24.3506C121.197 24.0811 120.931 23.7306 120.738 23.2973C120.545 22.864 120.449 22.34 120.449 21.7235V12.2799H118.446V9.82538H120.449V4.85829H123.64V9.82538H126.948V12.2799H123.64V20.7116C123.678 21.2505 123.847 21.6407 124.147 21.8811C124.447 22.1215 124.82 22.2413 125.265 22.2413C125.71 22.2413 126.135 22.1647 126.542 22.0106C126.948 21.8565 127.248 21.7323 127.442 21.6345L128.108 24.148ZM130.024 7.34184V3.84814H133.215V7.34184H130.024ZM130.024 24.9274V9.82538H133.215V24.9274H130.024ZM135.769 17.3623C135.769 16.3037 135.953 15.3024 136.32 14.3592C136.676 13.4347 137.213 12.5903 137.902 11.8756C138.606 11.1512 139.45 10.5765 140.384 10.1865C141.351 9.77253 142.433 9.56557 143.634 9.56557C145.201 9.56557 146.551 9.90728 147.682 10.5907C148.814 11.2741 149.659 12.1839 150.221 13.3191L147.116 14.301C146.765 13.6825 146.254 13.1688 145.636 12.8136C145.009 12.4559 144.298 12.2716 143.575 12.2799C142.937 12.2799 142.341 12.4058 141.79 12.655C141.242 12.9028 140.753 13.2619 140.353 13.7092C139.937 14.1796 139.612 14.7232 139.396 15.3121C139.164 15.9285 139.047 16.612 139.047 17.3623C139.047 18.0942 139.168 18.7723 139.41 19.3985C139.652 20.0246 139.981 20.568 140.397 21.0295C140.802 21.4838 141.296 21.852 141.847 22.1119C142.396 22.3716 142.996 22.505 143.603 22.502C143.99 22.502 144.377 22.4483 144.765 22.3426C145.488 22.1501 146.145 21.7656 146.665 21.2303C146.907 20.9811 147.086 20.7107 147.201 20.4218L150.335 21.3465C149.833 22.4826 148.99 23.4109 147.81 24.133C146.63 24.8543 145.237 25.2154 143.631 25.2154C142.451 25.2154 141.377 25.0032 140.409 24.5795C139.442 24.1559 138.615 23.5835 137.928 22.8613C137.24 22.138 136.698 21.2901 136.332 20.3637C135.954 19.4078 135.763 18.3892 135.769 17.3623ZM152.716 24.9274V22.4729H153.993V24.9274H152.716ZM169.054 24.9274H167.604V16.553C167.604 12.8382 166.356 10.98 163.86 10.98C163.241 10.98 162.636 11.0953 162.046 11.3269C161.445 11.564 160.887 11.8955 160.392 12.3089C159.874 12.7384 159.42 13.2389 159.043 13.7955C158.658 14.3577 158.364 14.9768 158.173 15.63V24.9283H156.721V3.84814H158.173V13.4926C158.792 12.3186 159.648 11.3842 160.741 10.692C161.833 9.99887 163.009 9.65188 164.266 9.65188C165.098 9.65188 165.814 9.806 166.414 10.1142C167.014 10.4225 167.512 10.8655 167.908 11.4423C168.305 12.0192 168.594 12.7176 168.778 13.5357C168.962 14.3539 169.054 15.2733 169.054 16.2931V24.9274ZM180.285 11.2116C178.931 11.2503 177.747 11.6502 176.73 12.4102C175.715 13.1711 175.004 14.2147 174.598 15.5437V24.9283H173.146V9.91256H174.538V13.6088C175.061 12.5502 175.753 11.688 176.614 11.024C177.475 10.36 178.399 9.9795 179.386 9.8835C179.579 9.86413 179.752 9.85444 179.908 9.85444H180.285V11.2116Z" fill="white"/>
<path d="M48.9744 31.4097V37.2944H47.6494V28.9385H48.6903L53.4919 34.965V28.9508H54.8284V37.2953H53.7282L48.9744 31.4097ZM58.0218 37.4116C57.7226 37.4116 57.4447 37.3623 57.188 37.2645C56.9314 37.1667 56.711 37.0302 56.5251 36.8585C56.3398 36.6855 56.1912 36.4774 56.0879 36.2464C55.98 36.006 55.9253 35.7453 55.9277 35.482C55.9277 35.1914 55.9905 34.9289 56.1171 34.6929C56.2437 34.4569 56.4224 34.2534 56.6552 34.0808C56.888 33.9091 57.1641 33.7743 57.4837 33.681C57.8032 33.5876 58.1555 33.5401 58.5422 33.5401C59.0985 33.5399 59.6506 33.6353 60.1743 33.8219V33.3992C60.1743 32.9438 60.0442 32.5889 59.784 32.3335C59.5238 32.079 59.1494 31.9504 58.6599 31.9504C58.3289 31.9504 58.0032 32.0112 57.6837 32.1336C57.3651 32.2552 57.0349 32.4295 56.6959 32.6576L56.2941 31.8333C57.0898 31.2996 57.9182 31.0328 58.7777 31.0328C59.6291 31.0328 60.2912 31.2485 60.7647 31.6801C61.2382 32.1116 61.4745 32.7307 61.4745 33.5392V35.7629C61.4745 36.0386 61.5887 36.1795 61.818 36.1865V37.2927C61.623 37.3315 61.4247 37.3513 61.2258 37.3517C60.9736 37.3517 60.778 37.29 60.6399 37.1632C60.5012 37.0368 60.4113 36.8661 60.3859 36.6806L60.3505 36.2931C60.0743 36.6542 59.7336 36.9307 59.3273 37.1227C58.9197 37.3161 58.4733 37.4149 58.0218 37.4116ZM58.3767 36.4578C58.6918 36.4578 58.9901 36.4014 59.2698 36.2878C59.5274 36.19 59.7541 36.0255 59.9265 35.8114C60.092 35.6705 60.1743 35.5207 60.1743 35.364V34.552C59.9531 34.4648 59.7194 34.3987 59.4707 34.3512C59.222 34.3036 58.9795 34.2807 58.7431 34.2807C58.2776 34.2807 57.897 34.3803 57.6014 34.581C57.3058 34.781 57.1579 35.0452 57.1579 35.3754C57.1579 35.681 57.2721 35.9382 57.5005 36.146C57.7288 36.3539 58.0218 36.4578 58.3767 36.4578Z" fill="#C3E9FD"/>
<path d="M62.2805 39.5426C61.9964 39.5426 61.7282 39.4986 61.476 39.4132C61.2237 39.3277 60.9954 39.1939 60.79 39.0133L61.3698 38.1423C61.4724 38.2366 61.591 38.3053 61.7247 38.3484C61.8583 38.3916 61.9929 38.4127 62.1265 38.4127C62.2398 38.4126 62.3519 38.3902 62.4564 38.3469C62.5609 38.3035 62.6557 38.24 62.7355 38.16C62.9125 37.9909 63.001 37.7769 63.001 37.5179V31.1391H64.3021V37.4246C64.3021 37.7372 64.249 38.0243 64.1428 38.2832C64.0419 38.5331 63.8931 38.7611 63.7046 38.9543C63.5214 39.1416 63.3019 39.2899 63.0594 39.3903C62.8125 39.4921 62.5478 39.5439 62.2805 39.5426ZM63.0019 30.1272V28.704H64.303V30.1272H63.0019ZM70.0508 37.2942L68.0761 34.4575L67.0468 35.4228V37.2942H65.7457V28.7031H67.0468V34.1519L69.8852 31.1514H71.3049L68.9046 33.7292L71.435 37.2951H70.0508V37.2942ZM75.5861 32.2576C75.0816 32.2743 74.6338 32.3888 74.2434 32.6055C73.8531 32.8221 73.5752 33.1295 73.4097 33.5293V37.2951H72.1086V31.14H73.315V32.5165C73.5274 32.0938 73.8062 31.7538 74.1487 31.4993C74.4921 31.2439 74.8603 31.1048 75.2551 31.081H75.4507C75.502 31.081 75.5472 31.0854 75.5861 31.0933V32.2576ZM77.9759 37.4122C77.6767 37.4122 77.3988 37.3629 77.1421 37.2652C76.8854 37.1674 76.665 37.0309 76.4792 36.8592C76.2939 36.6862 76.1452 36.4781 76.0419 36.2471C75.934 36.0067 75.8794 35.746 75.8817 35.4827C75.8817 35.192 75.9446 34.9296 76.0711 34.6936C76.1977 34.4575 76.3765 34.2541 76.6093 34.0815C76.8421 33.9098 77.1182 33.775 77.4377 33.6817C77.7572 33.5883 78.1095 33.5407 78.4963 33.5407C79.0526 33.5406 79.6047 33.6359 80.1284 33.8226V33.3998C80.1284 32.9445 79.9983 32.5896 79.7381 32.3342C79.4779 32.0797 79.1035 31.9511 78.614 31.9511C78.283 31.9511 77.9573 32.0119 77.6378 32.1343C77.3191 32.2558 76.989 32.4302 76.65 32.6583L76.2482 31.834C77.0439 31.3003 77.8723 31.0334 78.7317 31.0334C79.5832 31.0334 80.2452 31.2492 80.7188 31.6807C81.1923 32.1123 81.4286 32.7314 81.4286 33.5399V35.7636C81.4286 36.0393 81.5428 36.1802 81.772 36.1872V37.2934C81.577 37.3322 81.3787 37.3519 81.1799 37.3524C80.9276 37.3524 80.732 37.2907 80.594 37.1639C80.4552 37.0375 80.3654 36.8667 80.3399 36.6813L80.3045 36.2938C80.0284 36.6549 79.6876 36.9314 79.2814 37.1234C78.8769 37.3163 78.4405 37.4122 77.9759 37.4122ZM78.3299 36.4585C78.645 36.4585 78.9433 36.4021 79.223 36.2885C79.4806 36.1907 79.7073 36.0262 79.8797 35.812C80.0452 35.6711 80.1275 35.5214 80.1275 35.3646V34.5527C79.9062 34.4655 79.6726 34.3994 79.4239 34.3519C79.1752 34.3043 78.9326 34.2814 78.6963 34.2814C78.2308 34.2814 77.8502 34.3809 77.5546 34.5817C77.2589 34.7816 77.1111 35.0458 77.1111 35.3761C77.1111 35.6817 77.2253 35.9389 77.4537 36.1467C77.682 36.3545 77.9759 36.4585 78.3299 36.4585ZM82.4819 34.2109C82.4819 33.7794 82.5562 33.3717 82.7067 32.9868C82.8563 32.6019 83.0713 32.2646 83.351 31.9749C83.6307 31.6843 83.9679 31.4553 84.3627 31.2862C84.7824 31.1128 85.2333 31.0268 85.6877 31.0334C86.3267 31.0334 86.8763 31.1726 87.3375 31.4518C87.7986 31.73 88.1438 32.1008 88.3721 32.5641L87.1065 32.9639C86.9636 32.7117 86.7551 32.5024 86.5028 32.358C86.2475 32.2118 85.9575 32.1364 85.6629 32.1396C85.4149 32.1382 85.1694 32.1895 84.9429 32.29C84.7164 32.3906 84.5141 32.538 84.3494 32.7226C84.1839 32.9066 84.0538 33.1242 83.9591 33.3752C83.8644 33.6262 83.8166 33.9053 83.8166 34.2109C83.8166 34.5095 83.8661 34.7852 83.9644 35.0406C84.0626 35.2951 84.1972 35.517 84.3671 35.7055C84.5362 35.8939 84.7335 36.041 84.9584 36.1467C85.1832 36.2524 85.4212 36.3061 85.6744 36.3061C85.8319 36.3061 85.9895 36.285 86.1479 36.2409C86.4422 36.1615 86.7097 36.0049 86.9224 35.7874C87.0206 35.6861 87.0941 35.576 87.1419 35.458L88.4191 35.8349C88.2146 36.2982 87.8712 36.6769 87.3897 36.971C86.9082 37.2652 86.3409 37.4122 85.6868 37.4122C85.2359 37.4178 84.7888 37.3296 84.3742 37.1533C83.993 36.9901 83.6489 36.752 83.3625 36.4532C83.0824 36.1582 82.8616 35.8127 82.712 35.4351C82.5577 35.0453 82.4796 34.6299 82.4819 34.2109ZM85.9594 30.2567L85.1079 29.9977L85.7824 28.7031H87.0242L85.9594 30.2567ZM89.3767 30.1272V28.704H90.6778V30.1272H89.3767ZM89.3767 37.2942V31.1391H90.6778V37.2942H89.3767ZM98.4356 37.4122C97.9391 37.4122 97.501 37.2942 97.1231 37.0591C96.7519 36.8316 96.443 36.5164 96.2238 36.1414V39.8016H94.9227V31.1391H96.0698V32.2461C96.3005 31.8834 96.6149 31.5805 96.9867 31.3628C97.3728 31.1403 97.8125 31.0264 98.2586 31.0334C98.6843 31.0334 99.0747 31.1206 99.4296 31.2923C99.7836 31.465 100.092 31.6966 100.352 31.9872C100.612 32.277 100.815 32.6143 100.961 32.9982C101.107 33.3822 101.179 33.7873 101.179 34.2109C101.179 34.6583 101.112 35.0758 100.978 35.4642C100.854 35.834 100.662 36.1773 100.41 36.4761C100.17 36.7595 99.874 36.9916 99.5411 37.1586C99.1982 37.3297 98.8192 37.4166 98.4356 37.4122ZM98.0108 36.3061C98.2869 36.3061 98.5374 36.2471 98.7622 36.1291C98.987 36.0111 99.18 35.8543 99.3411 35.6588C99.5022 35.4633 99.627 35.2387 99.7137 34.9877C99.8005 34.7367 99.8438 34.4778 99.8438 34.2109C99.8467 33.6737 99.6507 33.1543 99.2933 32.7516C99.1231 32.5627 98.9159 32.4105 98.6843 32.3043C98.4434 32.1932 98.1807 32.1367 97.9152 32.1387C97.7497 32.1387 97.5762 32.1704 97.3948 32.2329C97.033 32.3568 96.7134 32.5792 96.4725 32.8749C96.3567 33.0145 96.2719 33.1769 96.2238 33.3514V34.9639C96.3803 35.3386 96.6311 35.6668 96.9522 35.9168C97.1062 36.034 97.2735 36.1282 97.455 36.1987C97.6355 36.27 97.8214 36.3061 98.0108 36.3061ZM104.137 37.4122C103.491 37.4122 103.003 37.2026 102.671 36.7826C102.34 36.3625 102.174 35.7363 102.174 34.9049V31.1391H103.475V34.646C103.475 35.7522 103.869 36.3061 104.658 36.3061C105.029 36.3061 105.379 36.1916 105.71 35.9644C106.041 35.7363 106.298 35.4069 106.479 34.9754V31.1391H107.78V35.7645C107.78 35.9133 107.805 36.0199 107.857 36.0824C107.909 36.1449 108.001 36.1802 108.134 36.1881V37.2942C108.025 37.3142 107.914 37.3301 107.803 37.3418C107.721 37.3494 107.638 37.3532 107.556 37.3532C107.338 37.3596 107.125 37.2912 106.952 37.1595C106.873 37.1014 106.809 37.0261 106.764 36.9394C106.719 36.8527 106.694 36.7569 106.692 36.6593L106.669 36.0472C106.392 36.4946 106.033 36.8345 105.592 37.0653C105.15 37.296 104.665 37.4122 104.137 37.4122ZM112.759 36.9772C112.536 37.0777 112.307 37.1659 112.074 37.2414C111.782 37.3392 111.47 37.3885 111.138 37.3885C110.934 37.3885 110.741 37.3612 110.56 37.3066C110.386 37.2554 110.223 37.1714 110.081 37.0591C109.939 36.9444 109.827 36.7972 109.755 36.6302C109.671 36.4267 109.631 36.208 109.637 35.9882V32.1396H108.82V31.1391H109.637V29.1153H110.938V31.1391H112.286V32.1396H110.938V35.576C110.954 35.7962 111.023 35.9547 111.145 36.0525C111.268 36.1511 111.419 36.1995 111.6 36.1995C111.782 36.1995 111.955 36.1687 112.121 36.1062C112.246 36.0612 112.368 36.01 112.487 35.9529L112.759 36.9772ZM118.862 37.4122C118.443 37.4122 118.057 37.3277 117.702 37.1595C117.351 36.9941 117.037 36.7598 116.779 36.4708C116.514 36.1723 116.307 35.827 116.17 35.4527C116.022 35.0515 115.948 34.6269 115.952 34.1995C115.952 33.7688 116.02 33.362 116.158 32.9815C116.296 32.6002 116.489 32.2655 116.738 31.9749C116.985 31.6843 117.277 31.4553 117.612 31.2862C117.955 31.1159 118.335 31.0293 118.718 31.0334C119.215 31.0334 119.653 31.1532 120.031 31.3919C120.397 31.6189 120.702 31.9323 120.918 32.3043V28.7031H122.219V35.7645C122.219 35.9133 122.245 36.0199 122.296 36.0824C122.347 36.1449 122.439 36.1802 122.574 36.1881V37.2942C122.466 37.3138 122.357 37.3297 122.248 37.3418C122.18 37.3488 122.111 37.3527 122.042 37.3532C121.782 37.3532 121.568 37.2872 121.403 37.1533C121.323 37.0914 121.257 37.0132 121.21 36.9238C121.163 36.8345 121.136 36.7362 121.13 36.6355L121.107 36.1766C120.883 36.5567 120.56 36.8697 120.173 37.0829C119.772 37.3043 119.32 37.4179 118.862 37.4122ZM119.181 36.3061C119.371 36.3061 119.56 36.2744 119.75 36.2119C119.939 36.1493 120.112 36.063 120.27 35.9529C120.428 35.8429 120.564 35.7143 120.678 35.5646C120.792 35.4157 120.874 35.2546 120.921 35.0819V33.4703C120.85 33.2747 120.748 33.0918 120.619 32.9287C120.369 32.6095 120.032 32.3686 119.649 32.2347C119.468 32.1728 119.278 32.141 119.087 32.1405C118.826 32.1405 118.588 32.1995 118.371 32.3175C118.153 32.4355 117.966 32.5922 117.809 32.7878C117.65 32.9841 117.527 33.2078 117.436 33.4588C117.345 33.7098 117.3 33.9688 117.3 34.2356C117.297 34.7738 117.495 35.294 117.856 35.6949C118.029 35.8834 118.229 36.0322 118.454 36.1423C118.679 36.2524 118.921 36.3061 119.181 36.3061ZM126.538 37.4122C126.085 37.419 125.636 37.3308 125.219 37.1533C124.843 36.9901 124.503 36.7539 124.22 36.4585C123.941 36.165 123.724 35.8192 123.581 35.4413C123.431 35.0524 123.355 34.639 123.356 34.2224C123.356 33.7997 123.431 33.3937 123.581 33.0044C123.731 32.6169 123.946 32.277 124.226 31.9872C124.505 31.6966 124.841 31.465 125.232 31.2923C125.644 31.1156 126.09 31.0273 126.539 31.0334C126.988 31.0276 127.434 31.1158 127.846 31.2923C128.224 31.4563 128.566 31.6924 128.852 31.9872C129.132 32.277 129.347 32.6169 129.497 33.0044C129.647 33.3928 129.722 33.7988 129.722 34.2224C129.722 34.646 129.647 35.052 129.497 35.4413C129.347 35.8288 129.132 36.1687 128.852 36.4585C128.572 36.7491 128.238 36.9807 127.846 37.1533C127.433 37.3298 126.988 37.418 126.538 37.4122ZM124.693 34.2347C124.693 34.5333 124.741 34.8072 124.834 35.0591C124.929 35.31 125.059 35.5276 125.225 35.7125C125.391 35.8966 125.585 36.0419 125.81 36.1476C126.035 36.2533 126.277 36.307 126.537 36.307C126.798 36.307 127.039 36.2533 127.264 36.1476C127.489 36.0419 127.684 35.8948 127.85 35.7064C128.015 35.5179 128.146 35.2977 128.239 35.0467C128.337 34.7828 128.385 34.5035 128.382 34.2224C128.382 33.9326 128.334 33.6596 128.239 33.4042C128.152 33.1607 128.02 32.9354 127.85 32.7393C127.683 32.5509 127.489 32.4038 127.264 32.2981C127.038 32.1923 126.791 32.138 126.542 32.139C126.292 32.1401 126.046 32.1965 125.821 32.3043C125.598 32.4128 125.399 32.5649 125.236 32.7516C125.065 32.948 124.931 33.1732 124.84 33.4166C124.741 33.6781 124.691 33.9554 124.693 34.2347ZM132.903 35.8235C133.037 35.9168 133.237 36.0093 133.5 36.0991C133.765 36.1899 134.067 36.2339 134.405 36.2339C134.768 36.2339 135.057 36.1696 135.274 36.0401C135.496 35.9043 135.67 35.7026 135.771 35.4633C135.886 35.2088 135.961 34.8908 135.996 34.5104C136.032 34.129 136.049 33.6878 136.049 33.1858V28.9374H137.387V33.1858C137.387 33.8217 137.355 34.4003 137.292 34.9225C137.229 35.4439 137.095 35.8895 136.89 36.2585C136.685 36.6276 136.386 36.9138 135.991 37.1181C135.596 37.3224 135.068 37.4246 134.406 37.4246C133.696 37.4246 133.09 37.252 132.584 36.9059L132.903 35.8235ZM140.461 37.4122C140.176 37.4148 139.893 37.3649 139.627 37.2652C139.382 37.1737 139.157 37.0358 138.965 36.8592C138.78 36.6866 138.634 36.4822 138.528 36.2471C138.421 36.012 138.367 35.7566 138.367 35.4827C138.367 35.192 138.43 34.9296 138.557 34.6936C138.683 34.4575 138.863 34.2541 139.095 34.0815C139.328 33.9098 139.603 33.775 139.923 33.6817C140.242 33.5883 140.595 33.5407 140.981 33.5407C141.538 33.5407 142.09 33.636 142.614 33.8226V33.3998C142.614 32.9445 142.484 32.5896 142.224 32.3342C141.964 32.0797 141.589 31.9511 141.1 31.9511C140.769 31.9511 140.444 32.0119 140.123 32.1343C139.805 32.2558 139.476 32.4302 139.137 32.6583L138.734 31.834C139.53 31.3003 140.359 31.0334 141.218 31.0334C142.07 31.0334 142.733 31.2492 143.205 31.6807C143.678 32.1123 143.915 32.7314 143.915 33.5399V35.7636C143.915 36.0393 144.029 36.1802 144.259 36.1872V37.2934C144.064 37.3323 143.866 37.3521 143.667 37.3524C143.415 37.3524 143.22 37.2907 143.081 37.1639C142.943 37.0375 142.853 36.8667 142.827 36.6813L142.792 36.2938C142.516 36.6549 142.175 36.9314 141.769 37.1234C141.36 37.3163 140.913 37.4151 140.461 37.4122ZM140.816 36.4585C141.131 36.4585 141.428 36.4021 141.709 36.2885C141.989 36.1749 142.207 36.0155 142.365 35.812C142.531 35.6711 142.613 35.5214 142.613 35.3646V34.5527C142.385 34.4641 142.15 34.3968 141.91 34.3519C141.67 34.3055 141.426 34.2819 141.182 34.2814C140.717 34.2814 140.337 34.3809 140.04 34.5817C139.745 34.7816 139.597 35.0458 139.597 35.3761C139.597 35.6817 139.711 35.9389 139.94 36.1467C140.169 36.3545 140.461 36.4585 140.816 36.4585ZM147.888 37.4122C147.47 37.4122 147.084 37.3277 146.729 37.1595C146.378 36.9941 146.064 36.7598 145.806 36.4708C145.541 36.1723 145.334 35.827 145.197 35.4527C145.049 35.0515 144.974 34.6269 144.978 34.1995C144.978 33.7688 145.046 33.362 145.184 32.9815C145.322 32.6002 145.515 32.2655 145.764 31.9749C146.012 31.6843 146.303 31.4553 146.639 31.2862C146.982 31.1159 147.361 31.0293 147.745 31.0334C148.242 31.0334 148.68 31.1532 149.058 31.3919C149.424 31.6189 149.729 31.9323 149.944 32.3043V28.7031H151.246V35.7645C151.246 35.9133 151.271 36.0199 151.323 36.0824C151.374 36.1449 151.466 36.1802 151.6 36.1881V37.2942C151.492 37.3138 151.384 37.3297 151.275 37.3418C151.206 37.3488 151.137 37.3527 151.068 37.3532C150.808 37.3532 150.595 37.2872 150.429 37.1533C150.349 37.0914 150.284 37.0132 150.237 36.9238C150.19 36.8345 150.162 36.7362 150.157 36.6355L150.134 36.1766C149.91 36.5567 149.587 36.8697 149.199 37.0829C148.798 37.3042 148.347 37.4178 147.888 37.4122ZM148.208 36.3061C148.397 36.3061 148.587 36.2744 148.776 36.2119C148.966 36.1493 149.139 36.063 149.297 35.9529C149.455 35.8429 149.59 35.7143 149.705 35.5646C149.819 35.4157 149.9 35.2546 149.947 35.0819V33.4703C149.877 33.2747 149.775 33.0918 149.645 32.9287C149.396 32.6095 149.059 32.3686 148.675 32.2347C148.494 32.1728 148.304 32.141 148.113 32.1405C147.853 32.1405 147.615 32.1995 147.397 32.3175C147.179 32.4355 146.993 32.5922 146.835 32.7878C146.677 32.9841 146.554 33.2078 146.462 33.4588C146.371 33.7098 146.327 33.9688 146.327 34.2356C146.324 34.7738 146.522 35.294 146.883 35.6949C147.056 35.8834 147.256 36.0322 147.48 36.1423C147.705 36.2524 147.948 36.3061 148.208 36.3061ZM156.262 32.2576C155.758 32.2743 155.311 32.3888 154.92 32.6055C154.53 32.8212 154.251 33.1295 154.086 33.5293V37.2951H152.785V31.14H153.991V32.5165C154.203 32.0938 154.482 31.7538 154.825 31.4993C155.167 31.2439 155.536 31.1048 155.93 31.081H156.126C156.177 31.081 156.222 31.0854 156.261 31.0933V32.2576H156.262ZM158.652 37.4122C158.367 37.4148 158.085 37.3649 157.818 37.2652C157.573 37.1737 157.348 37.0358 157.156 36.8592C156.971 36.6866 156.825 36.4822 156.719 36.2471C156.613 36.012 156.559 35.7566 156.559 35.4827C156.559 35.192 156.622 34.9296 156.748 34.6936C156.875 34.4575 157.054 34.2541 157.286 34.0815C157.519 33.9098 157.794 33.775 158.115 33.6817C158.433 33.5883 158.786 33.5407 159.172 33.5407C159.729 33.5407 160.281 33.636 160.805 33.8226V33.3998C160.805 32.9445 160.675 32.5896 160.415 32.3342C160.155 32.0797 159.78 31.9511 159.291 31.9511C158.96 31.9511 158.635 32.0119 158.315 32.1343C157.996 32.2558 157.667 32.4302 157.328 32.6583L156.925 31.834C157.722 31.3003 158.55 31.0334 159.41 31.0334C160.261 31.0334 160.924 31.2492 161.397 31.6807C161.869 32.1123 162.106 32.7314 162.106 33.5399V35.7636C162.106 36.0393 162.221 36.1802 162.45 36.1872V37.2934C162.255 37.3323 162.057 37.3521 161.859 37.3524C161.606 37.3524 161.411 37.2907 161.273 37.1639C161.134 37.0375 161.044 36.8667 161.019 36.6813L160.983 36.2938C160.707 36.6549 160.366 36.9314 159.96 37.1234C159.551 37.3163 159.104 37.4151 158.652 37.4122ZM159.007 36.4585C159.322 36.4585 159.619 36.4021 159.9 36.2885C160.181 36.1749 160.398 36.0155 160.556 35.812C160.722 35.6711 160.805 35.5214 160.805 35.3646V34.5527C160.577 34.4641 160.341 34.3968 160.101 34.3519C159.861 34.3055 159.618 34.2819 159.373 34.2814C158.909 34.2814 158.528 34.3809 158.232 34.5817C157.936 34.7816 157.788 35.0458 157.788 35.3761C157.788 35.6817 157.902 35.9389 158.132 36.1467C158.361 36.3545 158.652 36.4585 159.007 36.4585ZM169.108 37.2942H167.806V33.8463C167.806 33.266 167.714 32.8432 167.529 32.5808C167.344 32.3175 167.069 32.1862 166.706 32.1862C166.517 32.1862 166.327 32.2215 166.138 32.2919C165.949 32.3624 165.772 32.4628 165.605 32.5922C165.437 32.7245 165.288 32.8788 165.162 33.0511C165.032 33.2284 164.93 33.4248 164.86 33.6332V37.2934H163.559V31.1382H164.742V32.3738C164.982 31.9542 165.34 31.6129 165.771 31.391C166.23 31.1498 166.742 31.0266 167.261 31.0325C167.632 31.0325 167.936 31.0995 168.172 31.2333C168.408 31.3672 168.596 31.5486 168.734 31.7802C168.871 32.0119 168.969 32.2778 169.023 32.5808C169.079 32.8829 169.107 33.2026 169.107 33.5399V37.2942H169.108ZM172.148 37.4122C171.863 37.4148 171.581 37.3649 171.314 37.2652C171.069 37.1737 170.844 37.0358 170.652 36.8592C170.467 36.6866 170.321 36.4822 170.215 36.2471C170.109 36.012 170.055 35.7566 170.055 35.4827C170.055 35.192 170.117 34.9296 170.244 34.6936C170.371 34.4575 170.55 34.2541 170.782 34.0815C171.015 33.9098 171.29 33.775 171.611 33.6817C171.929 33.5883 172.282 33.5407 172.668 33.5407C173.225 33.5407 173.777 33.636 174.301 33.8226V33.3998C174.301 32.9445 174.171 32.5896 173.911 32.3342C173.651 32.0797 173.276 31.9511 172.787 31.9511C172.456 31.9511 172.131 32.0119 171.811 32.1343C171.492 32.2558 171.163 32.4302 170.824 32.6583L170.421 31.834C171.218 31.3003 172.046 31.0334 172.905 31.0334C173.757 31.0334 174.42 31.2492 174.893 31.6807C175.365 32.1123 175.602 32.7314 175.602 33.5399V35.7636C175.602 36.0393 175.717 36.1802 175.946 36.1872V37.2934C175.751 37.3323 175.553 37.3521 175.355 37.3524C175.102 37.3524 174.907 37.2907 174.769 37.1639C174.63 37.0375 174.54 36.8667 174.515 36.6813L174.479 36.2938C174.203 36.6549 173.862 36.9314 173.456 37.1234C173.047 37.3163 172.6 37.4151 172.148 37.4122ZM172.503 36.4585C172.818 36.4585 173.115 36.4021 173.396 36.2885C173.676 36.1749 173.894 36.0155 174.052 35.812C174.218 35.6711 174.3 35.5214 174.3 35.3646V34.5527C174.073 34.4641 173.837 34.3968 173.597 34.3519C173.357 34.3055 173.113 34.2819 172.869 34.2814C172.405 34.2814 172.024 34.3809 171.727 34.5817C171.432 34.7816 171.284 35.0458 171.284 35.3761C171.284 35.6817 171.398 35.9389 171.627 36.1467C171.857 36.3545 172.148 36.4585 172.503 36.4585Z" fill="#C3E9FD"/>
<path d="M19.9373 38.7753C9.44278 38.7753 0.904297 30.2801 0.904297 19.8378C0.904297 9.39551 9.44189 0.900391 19.9373 0.900391C30.4327 0.900391 38.9712 9.39551 38.9712 19.8378C38.9712 30.2801 30.4327 38.7753 19.9373 38.7753Z" fill="white"/>
<path d="M19.9376 1.79925C29.9506 1.79925 38.0669 9.87516 38.0669 19.8375C38.0669 29.7998 29.9506 37.8766 19.9376 37.8766C9.92542 37.8766 1.80824 29.7998 1.80824 19.8384C1.80824 9.87604 9.92542 1.79925 19.9376 1.79925ZM19.9376 0C8.94474 0 0 8.89935 0 19.8375C0 30.7748 8.94386 39.675 19.9376 39.675C30.9313 39.675 39.876 30.7765 39.876 19.8375C39.876 8.89847 30.9313 0 19.9376 0Z" fill="white"/>
<path d="M27.5141 9.08915C30.1402 8.80117 32.4609 8.96586 34.6533 9.31021C31.6059 5.09964 26.7813 2.25061 21.2725 1.85254C23.8052 3.83891 25.9252 6.29682 27.5141 9.08915ZM37.4307 15.0954C37.1456 14.0485 36.7665 13.0293 36.2978 12.05C33.6567 11.5383 31.1226 10.7906 28.2558 10.4886C28.7184 11.4446 29.1173 12.4298 29.4498 13.438C32.1918 13.888 34.7843 14.5485 37.4307 15.0954ZM38.068 19.8362C38.068 19.1581 38.0264 18.4879 37.9529 17.8265C36.1316 17.7511 34.3181 17.5456 32.5264 17.2117C31.7803 17.0698 31.037 16.9139 30.2969 16.7441C30.4611 17.6401 30.5748 18.5445 30.6376 19.4531C33.0778 19.9665 35.5065 20.4782 38.0414 20.812C38.06 20.4879 38.068 20.1638 38.068 19.8362Z" fill="#FF9C1A"/>
<path d="M37.6951 23.4801C35.3308 23.5793 32.9623 23.485 30.6135 23.1982C30.1879 28.3902 28.11 33.3119 24.6816 37.2487C31.2366 35.4838 36.3188 30.1548 37.6951 23.4801Z" fill="#2272B6"/>
<path d="M14.9043 2.50906C17.5563 5.61051 19.6167 9.16785 20.984 13.006C24.0721 12.77 26.8336 13.0051 29.449 13.4366C29.1163 12.4286 28.7174 11.4433 28.255 10.4872C25.8101 10.2214 23.338 10.3543 20.9362 10.8809C19.9325 11.0984 21.4363 10.5594 21.6 10.5075C22.6002 10.1587 23.7304 9.76328 24.8864 9.51669C25.7546 9.32889 26.632 9.18602 27.5151 9.08868C25.9262 6.29632 23.8062 3.8384 21.2734 1.85206C20.8299 1.81816 20.3853 1.80024 19.9405 1.79834C18.2366 1.79947 16.5413 2.03872 14.9043 2.50906ZM21.6 14.9373C21.8815 15.9193 22.1213 16.9224 22.3143 17.9405C25.1961 18.298 27.924 18.874 30.6386 19.4526C30.5757 18.544 30.462 17.6396 30.2978 16.7436C27.4637 16.1034 24.6784 15.3328 21.6 14.9373Z" fill="#FEAF4E"/>
<path d="M22.8052 21.749C22.861 22.5425 22.9008 23.3448 22.9008 24.1515C22.9008 24.4369 22.8857 24.7152 22.8778 24.9996C24.5187 25.5686 26.3996 26.2617 24.8329 25.8257C24.184 25.6468 23.5293 25.4893 22.8698 25.3537C22.7204 29.6782 21.7243 33.9321 19.9375 37.8771C21.5811 37.8771 23.1716 37.6587 24.6825 37.2491C28.1103 33.312 30.1881 28.3904 30.6144 23.1986C29.689 23.0914 28.7667 22.9592 27.8484 22.8023C26.1429 22.5029 24.4771 22.1286 22.8052 21.749Z" fill="#4499E3"/>
<path d="M11.7181 15.2951C10.4108 15.5628 12.3757 14.8865 12.5837 14.816C13.891 14.3854 15.3585 13.8869 16.8622 13.583C18.2224 13.3053 19.5988 13.1126 20.9832 13.0062C19.6161 9.16799 17.5557 5.61061 14.9035 2.50928C7.34395 4.67929 1.80859 11.6147 1.80859 19.8359C1.80859 20.0922 1.8201 20.3485 1.83072 20.6004C2.25956 20.4236 2.69375 20.26 3.13269 20.1098C4.7409 19.5541 6.54737 18.9183 8.40164 18.5202C13.6724 17.3867 18.1562 17.4299 22.3135 17.9407C22.1218 16.9293 21.8835 15.9272 21.5992 14.9375C18.6705 14.5633 15.4788 14.5316 11.7181 15.2951Z" fill="url(#paint0_linear_1383_5837)"/>
<path d="M3.22656 26.7864C3.71983 27.9647 4.33724 29.0877 5.06844 30.1365C9.21775 28.8164 13.0564 28.4359 17.9509 29.0277C18.6298 29.1114 23.3367 29.9886 21.2984 29.7437C15.1505 29.0031 10.9543 30.5645 6.69612 32.1286C10.0073 35.6576 14.708 37.876 19.9389 37.876C21.7247 33.9311 22.7207 29.6776 22.8712 25.3535C15.0735 23.7101 9.55143 25.8009 3.22656 26.7864Z" fill="url(#paint1_linear_1383_5837)"/>
<path d="M2.07109 20.7079C1.97816 20.7281 1.90293 20.744 1.83301 20.7545C1.89142 21.8986 2.06136 23.01 2.32335 24.0853C3.41471 23.8438 4.51164 23.628 5.61323 23.438C10.7919 22.5855 15.3864 22.8127 21.074 24.4015C21.3263 24.4684 22.0742 24.7185 22.8778 24.9995C22.8858 24.715 22.9008 24.4367 22.9008 24.1522C22.9008 23.3446 22.8619 22.5441 22.8053 21.7488C16.7105 20.3626 10.5193 18.8945 2.07109 20.7079Z" fill="url(#paint2_linear_1383_5837)"/>
<defs>
<linearGradient id="paint0_linear_1383_5837" x1="1.80771" y1="11.5539" x2="22.3126" y2="11.5539" gradientUnits="userSpaceOnUse">
<stop stop-color="#FF9C1A"/>
<stop offset="0.066" stop-color="#FFA524"/>
<stop offset="0.245" stop-color="#FFB93A"/>
<stop offset="0.443" stop-color="#FFC749"/>
<stop offset="0.672" stop-color="#FFCF52"/>
<stop offset="1" stop-color="#FFD255"/>
</linearGradient>
<linearGradient id="paint1_linear_1383_5837" x1="3.22656" y1="31.3096" x2="22.8703" y2="31.3096" gradientUnits="userSpaceOnUse">
<stop stop-color="#4499E3"/>
<stop offset="0.13" stop-color="#469FE8"/>
<stop offset="0.619" stop-color="#4DAEF7"/>
<stop offset="1" stop-color="#4FB4FC"/>
</linearGradient>
<linearGradient id="paint2_linear_1383_5837" x1="1.83389" y1="22.4314" x2="22.9008" y2="22.4314" gradientUnits="userSpaceOnUse">
<stop stop-color="#4499E3"/>
<stop offset="0.13" stop-color="#469FE8"/>
<stop offset="0.619" stop-color="#4DAEF7"/>
<stop offset="1" stop-color="#4FB4FC"/>
</linearGradient>
</defs>
</svg>
