<svg width="163" height="36" viewBox="0 0 163 36" fill="none" xmlns="http://www.w3.org/2000/svg">
<path d="M50.2334 4.00291H52.7928L60.1062 22.5474H57.0242L55.0654 17.5066H47.9089L45.9764 22.5474H42.8682L50.2334 4.00291ZM54.4911 15.3375L51.5135 7.37165L48.4315 15.3375H54.4911ZM66.9489 22.8078C66.0256 22.8078 65.1733 22.6206 64.3894 22.2462C63.615 21.8786 62.9223 21.359 62.3526 20.7184C61.7667 20.0559 61.3103 19.2893 61.0072 18.4585C60.6845 17.5966 60.5244 16.6694 60.5244 15.6768C60.5244 14.7193 60.6766 13.8184 60.9817 12.9732C61.2697 12.1578 61.7031 11.4013 62.261 10.7404C62.7963 10.1065 63.4538 9.58686 64.1943 9.21256C64.9343 8.83816 65.7484 8.65097 66.6358 8.65097C67.7327 8.65097 68.699 8.91623 69.5354 9.44755C70.371 9.97887 71.0242 10.6536 71.4942 11.4717V3.48035H74.3674V19.1515C74.3674 19.4829 74.424 19.7179 74.5371 19.8573C74.6502 19.9967 74.855 20.0748 75.1513 20.0923V22.5474C74.855 22.5991 74.616 22.6342 74.4336 22.6517C74.2511 22.6692 74.0982 22.678 73.9763 22.678C73.4012 22.678 72.9312 22.5298 72.5656 22.2335C72.3894 22.0959 72.2447 21.9222 72.1411 21.7241C72.0375 21.526 71.9775 21.308 71.965 21.0848L71.9132 20.066C71.4182 20.9092 70.7056 21.6039 69.85 22.0774C68.9778 22.5641 68.0107 22.8078 66.9489 22.8078ZM67.6546 20.3528C68.072 20.3528 68.4903 20.2827 68.9085 20.1433C69.3176 20.0085 69.7048 19.8147 70.0579 19.5681C70.4011 19.3293 70.7051 19.0385 70.9589 18.7062C71.2106 18.3756 71.3898 18.0188 71.4942 17.6356V14.0574C71.3372 13.6224 71.1158 13.2218 70.8282 12.8561C70.5407 12.4905 70.2141 12.1766 69.8492 11.9162C69.4933 11.6602 69.1017 11.4578 68.687 11.3155C68.2877 11.1779 67.8683 11.1074 67.4459 11.1068C66.8716 11.1068 66.3443 11.2375 65.8655 11.4987C65.3862 11.7604 64.9644 12.1159 64.6252 12.5439C64.2701 12.991 63.9921 13.4941 63.8024 14.0327C63.6031 14.5855 63.5015 15.1688 63.502 15.7565C63.502 16.3834 63.6104 16.9753 63.8287 17.5321C64.0461 18.0897 64.3464 18.5772 64.7296 18.9946C65.1119 19.412 65.5525 19.7426 66.0487 19.9871C66.5484 20.2319 67.0982 20.357 67.6546 20.3528ZM85.4407 11.3681C84.3263 11.4032 83.3378 11.6597 82.4759 12.1384C81.614 12.6179 81.0006 13.3006 80.635 14.1888V22.5466H77.7617V8.88675H80.4255V11.9424C80.8954 11.0017 81.5096 10.2497 82.2672 9.68334C83.0239 9.11776 83.838 8.80869 84.7087 8.75612H85.1396C85.2528 8.75612 85.3531 8.76567 85.4399 8.7824L85.4407 11.3681ZM87.2689 6.64039V3.48035H90.1414V6.64039H87.2689ZM87.2689 22.5466V8.88675H90.1414V22.5466H87.2689ZM96.9585 22.8078C96.3297 22.8137 95.7053 22.7029 95.1168 22.4812C94.5753 22.2791 94.0784 21.973 93.6543 21.5803C93.2444 21.1968 92.9156 20.735 92.6873 20.2221C92.4498 19.6877 92.3298 19.1086 92.3352 18.5238C92.3352 17.8802 92.4746 17.2963 92.7526 16.7745C93.0306 16.2528 93.4273 15.7995 93.9411 15.4163C94.4549 15.034 95.0643 14.7369 95.7692 14.5282C96.475 14.3194 97.2533 14.2143 98.1072 14.2143C98.7516 14.2143 99.3865 14.2709 100.014 14.384C100.641 14.4979 101.207 14.6492 101.713 14.8412V13.9004C101.713 12.8904 101.425 12.1026 100.851 11.537C100.275 10.9714 99.4486 10.6886 98.3693 10.6886C97.6322 10.6896 96.9017 10.8268 96.2145 11.0933C95.5096 11.3633 94.7823 11.7513 94.0343 12.2555L93.1461 10.4273C94.9049 9.24362 96.7331 8.65176 98.6314 8.65176C100.511 8.65176 101.974 9.13131 103.019 10.088C104.064 11.0463 104.587 12.422 104.587 14.2151V19.1515C104.587 19.7617 104.838 20.0748 105.344 20.0923V22.5474C105.065 22.5991 104.826 22.6342 104.626 22.6517C104.426 22.6692 104.23 22.678 104.039 22.678C103.481 22.678 103.05 22.5386 102.746 22.2606C102.439 21.9797 102.241 21.6008 102.184 21.1892L102.105 20.3273C101.495 21.1286 100.743 21.742 99.8461 22.169C98.9492 22.5959 97.9853 22.8078 96.9585 22.8078ZM97.7424 20.6921C98.4386 20.6921 99.0958 20.5662 99.7147 20.3129C100.332 20.0612 100.816 19.7083 101.164 19.2559C101.53 18.942 101.713 18.6114 101.713 18.2633V16.4607C101.209 16.265 100.689 16.1162 100.158 16.0162C99.629 15.9135 99.091 15.8609 98.5517 15.8592C97.5241 15.8592 96.6837 16.0815 96.0313 16.5252C95.3789 16.9689 95.0523 17.5568 95.0523 18.288C95.0523 18.9675 95.304 19.5379 95.8099 19.9983C96.3149 20.4619 96.9585 20.6921 97.7424 20.6921ZM115.294 21.8416C114.929 22.016 114.424 22.212 113.78 22.4295C113.136 22.6469 112.448 22.7561 111.717 22.7561C111.283 22.7586 110.852 22.6971 110.437 22.5736C110.052 22.4601 109.694 22.2738 109.38 22.0248C109.075 21.781 108.835 21.464 108.661 21.0721C108.487 20.6802 108.401 20.2062 108.401 19.6486V11.1068H106.598V8.88675H108.401V4.39403H111.273V8.88675H114.25V11.1068H111.273V18.7333C111.307 19.2208 111.46 19.5737 111.73 19.7912C112 20.0086 112.335 20.117 112.736 20.117C113.136 20.117 113.519 20.0477 113.884 19.9083C114.25 19.7689 114.52 19.6566 114.694 19.5681L115.294 21.8416ZM117.018 6.64039V3.48035H119.891V6.64039H117.018ZM117.018 22.5466V8.88675H119.891V22.5466H117.018ZM122.189 15.7039C122.189 14.7464 122.354 13.8407 122.685 12.9876C123.005 12.1514 123.489 11.3876 124.108 10.7412C124.742 10.086 125.502 9.56617 126.342 9.21335C127.213 8.83896 128.187 8.65176 129.267 8.65176C130.678 8.65176 131.893 8.96084 132.911 9.57898C133.93 10.1971 134.69 11.02 135.196 12.0468L132.401 12.935C132.085 12.3755 131.625 11.9109 131.069 11.5896C130.505 11.266 129.865 11.0994 129.215 11.1068C128.64 11.1068 128.104 11.2207 127.608 11.4462C127.115 11.6702 126.675 11.9951 126.315 12.3997C125.94 12.8252 125.648 13.3169 125.453 13.8495C125.244 14.4071 125.139 15.0252 125.139 15.7039C125.139 16.3659 125.248 16.9792 125.466 17.5456C125.683 18.112 125.98 18.6035 126.354 19.0209C126.719 19.4318 127.163 19.7648 127.66 19.9999C128.153 20.2348 128.693 20.3554 129.24 20.3528C129.588 20.3528 129.936 20.3042 130.285 20.2086C130.936 20.0345 131.527 19.6867 131.995 19.2025C132.213 18.9771 132.375 18.7325 132.478 18.4712L135.299 19.3077C134.846 20.3352 134.088 21.1748 133.026 21.828C131.964 22.4804 130.711 22.807 129.265 22.807C128.203 22.807 127.236 22.6151 126.365 22.2319C125.495 21.8487 124.751 21.331 124.132 20.6778C123.513 20.0235 123.026 19.2566 122.695 18.4187C122.356 17.554 122.184 16.6328 122.189 15.7039ZM137.442 22.5466V20.3265H138.59V22.5466H137.442ZM152.146 22.5466H150.84V14.9719C150.84 11.6119 149.717 9.93107 147.471 9.93107C146.914 9.93107 146.369 10.0354 145.838 10.2449C145.298 10.4593 144.795 10.7592 144.35 11.1331C143.883 11.5216 143.475 11.9743 143.136 12.4777C142.789 12.9863 142.525 13.5462 142.353 14.137V22.5474H141.046V3.48035H142.353V12.2037C142.909 11.1419 143.68 10.2967 144.663 9.67059C145.646 9.04368 146.705 8.72983 147.836 8.72983C148.585 8.72983 149.229 8.86923 149.77 9.14803C150.31 9.42684 150.757 9.82752 151.114 10.3493C151.471 10.871 151.732 11.5027 151.897 12.2428C152.063 12.9828 152.146 13.8144 152.146 14.7369V22.5466ZM162.254 10.1406C161.035 10.1756 159.969 10.5373 159.054 11.2247C158.14 11.913 157.5 12.8569 157.135 14.059V22.5474H155.828V8.96562H157.081V12.3089C157.552 11.3514 158.174 10.5715 158.949 9.9709C159.724 9.37028 160.556 9.02616 161.444 8.93933C161.618 8.9218 161.774 8.91304 161.914 8.91304H162.254V10.1406Z" fill="#434343"/>
<path d="M44.0743 28.4102V33.733H42.8818V26.175H43.8186L48.1401 31.626V26.1861H49.3429V33.7338H48.3528L44.0743 28.4102ZM52.217 33.8389C51.9477 33.8389 51.6976 33.7943 51.4666 33.7059C51.2356 33.6175 51.0373 33.494 50.87 33.3387C50.7032 33.1822 50.5694 32.994 50.4765 32.785C50.3793 32.5676 50.3302 32.3318 50.3323 32.0936C50.3323 31.8307 50.3888 31.5933 50.5027 31.3799C50.6167 31.1664 50.7776 30.9824 50.9871 30.8262C51.1966 30.6709 51.4451 30.549 51.7327 30.4646C52.0202 30.3802 52.3373 30.3371 52.6854 30.3371C53.186 30.337 53.683 30.4232 54.1543 30.592V30.2097C54.1543 29.7978 54.0372 29.4768 53.803 29.2458C53.5688 29.0156 53.2318 28.8993 52.7913 28.8993C52.4934 28.8993 52.2003 28.9543 51.9127 29.065C51.6259 29.1749 51.3288 29.3326 51.0237 29.539L50.6621 28.7934C51.3782 28.3106 52.1238 28.0693 52.8973 28.0693C53.6636 28.0693 54.2594 28.2644 54.6856 28.6547C55.1118 29.0451 55.3245 29.6051 55.3245 30.3363V32.3477C55.3245 32.597 55.4272 32.7245 55.6335 32.7309V33.7314C55.4581 33.7665 55.2796 33.7844 55.1006 33.7847C54.8736 33.7847 54.6976 33.729 54.5733 33.6143C54.4484 33.4999 54.3676 33.3455 54.3447 33.1777L54.3128 32.8273C54.0643 33.1539 53.7576 33.404 53.3919 33.5776C53.0251 33.7525 52.6234 33.8419 52.217 33.8389ZM52.5364 32.9762C52.82 32.9762 53.0884 32.9252 53.3402 32.8225C53.572 32.734 53.7761 32.5852 53.9312 32.3915C54.0802 32.2641 54.1543 32.1286 54.1543 31.9869V31.2524C53.9551 31.1735 53.7448 31.1138 53.521 31.0708C53.2972 31.0278 53.0789 31.0071 52.8662 31.0071C52.4472 31.0071 52.1047 31.0971 51.8386 31.2787C51.5726 31.4595 51.4395 31.6985 51.4395 31.9972C51.4395 32.2736 51.5423 32.5062 51.7478 32.6942C51.9533 32.8822 52.217 32.9762 52.5364 32.9762Z" fill="#929292"/>
<path d="M56.0499 35.7658C55.7942 35.7658 55.5529 35.726 55.3258 35.6487C55.0988 35.5715 54.8933 35.4504 54.7085 35.2871L55.2303 34.4993C55.3227 34.5845 55.4294 34.6466 55.5497 34.6857C55.67 34.7247 55.791 34.7438 55.9113 34.7438C56.0132 34.7437 56.1141 34.7235 56.2082 34.6843C56.3023 34.645 56.3876 34.5876 56.4594 34.5152C56.6187 34.3622 56.6984 34.1687 56.6984 33.9345V28.1648H57.8693V33.85C57.8693 34.1328 57.8215 34.3925 57.7259 34.6267C57.6352 34.8527 57.5012 35.0589 57.3316 35.2337C57.1668 35.4031 56.9692 35.5372 56.7509 35.628C56.5288 35.7201 56.2904 35.7669 56.0499 35.7658ZM56.6992 27.2496V25.9623H57.8701V27.2496H56.6992ZM63.0431 33.7321L61.266 31.1664L60.3395 32.0394V33.7321H59.1686V25.9615H60.3395V30.8899L62.8942 28.176H64.1719L62.0116 30.5076L64.289 33.7329H63.0431V33.7321ZM68.025 29.1765C67.5709 29.1916 67.1678 29.2952 66.8166 29.4911C66.4653 29.6871 66.2151 29.9651 66.0662 30.3268V33.7329H64.8952V28.1656H65.9809V29.4107C66.1721 29.0283 66.423 28.7208 66.7313 28.4906C67.0404 28.2596 67.3718 28.1338 67.7271 28.1123H67.9031C67.9493 28.1123 67.9899 28.1162 68.025 28.1234V29.1765ZM70.1757 33.8389C69.9065 33.8389 69.6564 33.7943 69.4254 33.7059C69.1943 33.6174 68.996 33.494 68.8287 33.3386C68.662 33.1822 68.5282 32.9939 68.4352 32.785C68.3381 32.5676 68.2889 32.3317 68.291 32.0936C68.291 31.8307 68.3476 31.5933 68.4615 31.3798C68.5754 31.1664 68.7363 30.9823 68.9458 30.8262C69.1553 30.6709 69.4039 30.549 69.6914 30.4646C69.979 30.3801 70.296 30.3371 70.6441 30.3371C71.1448 30.337 71.6417 30.4232 72.113 30.592V30.2097C72.113 29.7978 71.9959 29.4768 71.7617 29.2458C71.5276 29.0156 71.1906 28.8993 70.7501 28.8993C70.4522 28.8993 70.159 28.9542 69.8715 29.065C69.5847 29.1749 69.2875 29.3326 68.9825 29.5389L68.6208 28.7933C69.3369 28.3106 70.0825 28.0692 70.856 28.0692C71.6223 28.0692 72.2182 28.2644 72.6444 28.6547C73.0705 29.0451 73.2832 29.6051 73.2832 30.3363V32.3477C73.2832 32.597 73.386 32.7245 73.5923 32.7308V33.7314C73.4168 33.7665 73.2383 33.7843 73.0594 33.7847C72.8324 33.7847 72.6563 33.729 72.532 33.6143C72.4072 33.4999 72.3263 33.3455 72.3034 33.1777L72.2716 32.8272C72.023 33.1538 71.7163 33.404 71.3507 33.5776C70.9867 33.7521 70.5939 33.8389 70.1757 33.8389ZM70.4944 32.9762C70.778 32.9762 71.0464 32.9252 71.2981 32.8225C71.53 32.734 71.734 32.5852 71.8892 32.3915C72.0382 32.264 72.1122 32.1286 72.1122 31.9868V31.2524C71.9131 31.1735 71.7028 31.1138 71.479 31.0708C71.2551 31.0278 71.0369 31.007 70.8242 31.007C70.4052 31.007 70.0626 31.0971 69.7966 31.2787C69.5305 31.4595 69.3975 31.6985 69.3975 31.9972C69.3975 32.2736 69.5002 32.5062 69.7058 32.6942C69.9113 32.8822 70.1757 32.9762 70.4944 32.9762ZM74.2311 30.9433C74.2311 30.553 74.2981 30.1842 74.4335 29.8361C74.5681 29.488 74.7617 29.1829 75.0134 28.9208C75.2651 28.6579 75.5686 28.4508 75.9239 28.2979C76.3016 28.141 76.7074 28.0632 77.1164 28.0692C77.6915 28.0692 78.1862 28.1951 78.6012 28.4476C79.0162 28.6993 79.3269 29.0347 79.5324 29.4537L78.3933 29.8154C78.2647 29.5872 78.077 29.3979 77.85 29.2673C77.6202 29.1351 77.3592 29.0669 77.0941 29.0698C76.8709 29.0685 76.6499 29.1149 76.4461 29.2059C76.2422 29.2968 76.0601 29.4302 75.9119 29.5971C75.763 29.7636 75.6459 29.9603 75.5606 30.1874C75.4754 30.4144 75.4324 30.6669 75.4324 30.9433C75.4324 31.2134 75.477 31.4627 75.5654 31.6937C75.6538 31.9239 75.7749 32.1246 75.9279 32.2951C76.08 32.4656 76.2577 32.5986 76.46 32.6942C76.6623 32.7898 76.8766 32.8384 77.1044 32.8384C77.2462 32.8384 77.388 32.8193 77.5306 32.7794C77.7955 32.7076 78.0362 32.5659 78.2276 32.3692C78.316 32.2776 78.3821 32.178 78.4252 32.0713L79.5746 32.4122C79.3906 32.8312 79.0815 33.1737 78.6482 33.4398C78.2149 33.7059 77.7043 33.8389 77.1156 33.8389C76.7098 33.8439 76.3074 33.7641 75.9342 33.6047C75.5912 33.4571 75.2815 33.2417 75.0237 32.9714C74.7716 32.7046 74.5729 32.3921 74.4383 32.0506C74.2994 31.698 74.2291 31.3222 74.2311 30.9433ZM77.3609 27.3667L76.5946 27.1325L77.2016 25.9615H78.3192L77.3609 27.3667ZM80.4365 27.2496V25.9623H81.6075V27.2496H80.4365ZM80.4365 33.7321V28.1648H81.6075V33.7321H80.4365ZM88.5896 33.8389C88.1427 33.8389 87.7484 33.7322 87.4082 33.5195C87.0742 33.3137 86.7962 33.0286 86.5989 32.6894V36H85.4279V28.1648H86.4603V29.1661C86.668 28.838 86.9509 28.5641 87.2855 28.3672C87.633 28.1659 88.0287 28.0629 88.4302 28.0692C88.8134 28.0692 89.1647 28.1481 89.4841 28.3034C89.8027 28.4596 90.08 28.6691 90.3142 28.9319C90.5484 29.194 90.7308 29.4991 90.8622 29.8464C90.9936 30.1937 91.059 30.5602 91.059 30.9433C91.059 31.348 90.9984 31.7256 90.8773 32.0769C90.7663 32.4114 90.5931 32.7219 90.3667 32.9921C90.1502 33.2484 89.8841 33.4584 89.5845 33.6095C89.2759 33.7642 88.9348 33.8429 88.5896 33.8389ZM88.2072 32.8384C88.4557 32.8384 88.6812 32.785 88.8835 32.6783C89.0858 32.5715 89.2595 32.4297 89.4045 32.2529C89.5494 32.0761 89.6618 31.8729 89.7398 31.6459C89.8179 31.4189 89.8569 31.1847 89.8569 30.9433C89.8595 30.4574 89.6831 29.9876 89.3614 29.6234C89.2083 29.4525 89.0218 29.3148 88.8134 29.2187C88.5965 29.1183 88.3601 29.0672 88.1212 29.069C87.9722 29.069 87.8161 29.0976 87.6528 29.1542C87.3272 29.2662 87.0396 29.4674 86.8227 29.7349C86.7185 29.8611 86.6422 30.008 86.5989 30.1659V31.6244C86.7397 31.9633 86.9655 32.2601 87.2545 32.4863C87.3931 32.5922 87.5436 32.6775 87.7069 32.7412C87.8694 32.8057 88.0367 32.8384 88.2072 32.8384ZM93.7211 33.8389C93.1396 33.8389 92.6999 33.6493 92.4012 33.2693C92.1033 32.8894 91.9543 32.323 91.9543 31.571V28.1648H93.1253V31.3368C93.1253 32.3373 93.4798 32.8384 94.1895 32.8384C94.5233 32.8384 94.8387 32.7348 95.1367 32.5293C95.4346 32.323 95.6656 32.0251 95.8289 31.6347V28.1648H96.9999V32.3485C96.9999 32.4831 97.0222 32.5795 97.0692 32.6361C97.1154 32.6926 97.1982 32.7245 97.3185 32.7316V33.7321C97.2198 33.7502 97.1204 33.7646 97.0206 33.7752C96.9464 33.782 96.872 33.7855 96.7975 33.7855C96.6017 33.7913 96.4098 33.7294 96.2543 33.6103C96.1833 33.5577 96.1253 33.4896 96.0848 33.4112C96.0442 33.3328 96.022 33.2461 96.0201 33.1578L95.9994 32.6042C95.75 33.0089 95.4274 33.3163 95.0299 33.525C94.6324 33.7337 94.1959 33.8389 93.7211 33.8389ZM101.481 33.4454C101.28 33.5363 101.074 33.616 100.864 33.6844C100.601 33.7728 100.321 33.8174 100.022 33.8174C99.8381 33.8174 99.6645 33.7927 99.5012 33.7433C99.3445 33.697 99.1982 33.621 99.0702 33.5195C98.9426 33.4157 98.842 33.2826 98.7771 33.1315C98.7016 32.9475 98.6655 32.7497 98.6711 32.5508V29.0698H97.9359V28.1648H98.6711V26.3343H99.8421V28.1648H101.055V29.0698H99.8421V32.178C99.8564 32.3772 99.9186 32.5205 100.028 32.609C100.138 32.6982 100.275 32.742 100.438 32.742C100.601 32.742 100.757 32.7141 100.906 32.6576C101.018 32.6168 101.129 32.5706 101.236 32.519L101.481 33.4454ZM106.973 33.8389C106.596 33.8389 106.249 33.7624 105.93 33.6103C105.614 33.4606 105.331 33.2488 105.099 32.9873C104.86 32.7174 104.674 32.405 104.551 32.0665C104.417 31.7036 104.351 31.3196 104.354 30.933C104.354 30.5434 104.415 30.1754 104.54 29.8313C104.664 29.4864 104.837 29.1837 105.061 28.9208C105.284 28.6579 105.546 28.4508 105.848 28.2979C106.157 28.1438 106.499 28.0655 106.844 28.0692C107.291 28.0692 107.685 28.1776 108.025 28.3935C108.355 28.5988 108.629 28.8823 108.824 29.2187V25.9615H109.995V32.3485C109.995 32.4831 110.018 32.5795 110.064 32.6361C110.11 32.6926 110.193 32.7245 110.314 32.7316V33.7321C110.217 33.7498 110.119 33.7642 110.021 33.7752C109.959 33.7815 109.897 33.785 109.835 33.7855C109.601 33.7855 109.409 33.7258 109.26 33.6047C109.188 33.5487 109.129 33.4779 109.087 33.3971C109.044 33.3163 109.02 33.2274 109.015 33.1363L108.994 32.7213C108.792 33.065 108.502 33.3481 108.153 33.541C107.792 33.7413 107.386 33.844 106.973 33.8389ZM107.261 32.8384C107.431 32.8384 107.602 32.8097 107.772 32.7531C107.943 32.6966 108.099 32.6185 108.24 32.519C108.383 32.4194 108.505 32.3031 108.608 32.1677C108.71 32.033 108.784 31.8873 108.826 31.7311V30.2734C108.762 30.0965 108.671 29.931 108.554 29.7835C108.33 29.4948 108.026 29.2769 107.681 29.1558C107.518 29.0998 107.348 29.071 107.175 29.0705C106.941 29.0705 106.727 29.1239 106.531 29.2307C106.335 29.3374 106.167 29.4792 106.025 29.656C105.883 29.8337 105.772 30.036 105.69 30.263C105.608 30.4901 105.568 30.7243 105.568 30.9656C105.565 31.4524 105.743 31.9229 106.068 32.2856C106.224 32.456 106.404 32.5906 106.606 32.6902C106.808 32.7898 107.026 32.8384 107.261 32.8384ZM113.882 33.8389C113.474 33.845 113.07 33.7652 112.695 33.6047C112.356 33.4571 112.051 33.2434 111.796 32.9762C111.545 32.7108 111.349 32.398 111.22 32.0561C111.085 31.7044 111.017 31.3305 111.018 30.9537C111.018 30.5713 111.085 30.2041 111.22 29.852C111.355 29.5015 111.549 29.194 111.801 28.9319C112.052 28.6691 112.354 28.4596 112.706 28.3034C113.077 28.1435 113.478 28.0637 113.883 28.0692C114.287 28.064 114.688 28.1438 115.059 28.3034C115.399 28.4518 115.706 28.6653 115.964 28.9319C116.216 29.194 116.409 29.5015 116.545 29.852C116.679 30.2033 116.747 30.5705 116.747 30.9537C116.747 31.3368 116.679 31.704 116.545 32.0561C116.409 32.4066 116.217 32.7141 115.964 32.9762C115.712 33.2391 115.411 33.4486 115.059 33.6047C114.687 33.7643 114.286 33.8441 113.882 33.8389ZM112.221 30.9648C112.221 31.2349 112.264 31.4826 112.348 31.7104C112.434 31.9374 112.551 32.1342 112.7 32.3015C112.849 32.468 113.024 32.5994 113.226 32.695C113.429 32.7906 113.647 32.8392 113.881 32.8392C114.115 32.8392 114.333 32.7906 114.535 32.695C114.737 32.5994 114.913 32.4664 115.062 32.2959C115.211 32.1254 115.328 31.9263 115.413 31.6993C115.5 31.4605 115.544 31.2079 115.541 30.9537C115.541 30.6916 115.498 30.4447 115.413 30.2136C115.334 29.9934 115.215 29.7896 115.062 29.6122C114.913 29.4418 114.737 29.3087 114.535 29.2131C114.332 29.1175 114.11 29.0683 113.885 29.0693C113.661 29.0702 113.439 29.1213 113.237 29.2187C113.036 29.3169 112.857 29.4545 112.71 29.6234C112.556 29.801 112.435 30.0047 112.353 30.2248C112.264 30.4613 112.22 30.7121 112.221 30.9648ZM119.61 32.4019C119.73 32.4863 119.91 32.5699 120.148 32.6512C120.386 32.7332 120.658 32.7731 120.962 32.7731C121.288 32.7731 121.549 32.7149 121.744 32.5978C121.944 32.475 122.101 32.2925 122.192 32.0761C122.295 31.8458 122.362 31.5583 122.394 31.2142C122.426 30.8692 122.442 30.4701 122.442 30.0161V26.1734H123.646V30.0161C123.646 30.5912 123.617 31.1146 123.56 31.587C123.504 32.0585 123.383 32.4616 123.199 32.7954C123.014 33.1291 122.745 33.388 122.389 33.5728C122.034 33.7576 121.559 33.85 120.963 33.85C120.324 33.85 119.778 33.6939 119.323 33.3809L119.61 32.4019ZM126.412 33.8389C126.156 33.8412 125.902 33.7961 125.662 33.7059C125.441 33.6231 125.239 33.4984 125.066 33.3386C124.899 33.1825 124.768 32.9977 124.672 32.785C124.577 32.5723 124.528 32.3413 124.528 32.0936C124.528 31.8307 124.585 31.5933 124.699 31.3798C124.813 31.1664 124.974 30.9823 125.183 30.8262C125.392 30.6709 125.64 30.549 125.929 30.4646C126.215 30.3801 126.533 30.3371 126.881 30.3371C127.381 30.3371 127.879 30.4233 128.35 30.592V30.2097C128.35 29.7978 128.233 29.4768 127.999 29.2458C127.765 29.0156 127.428 28.8993 126.987 28.8993C126.689 28.8993 126.397 28.9542 126.109 29.065C125.822 29.1749 125.526 29.3326 125.22 29.5389L124.858 28.7933C125.575 28.3106 126.321 28.0692 127.094 28.0692C127.86 28.0692 128.457 28.2644 128.882 28.6547C129.308 29.0451 129.521 29.6051 129.521 30.3363V32.3477C129.521 32.597 129.624 32.7245 129.83 32.7308V33.7314C129.655 33.7666 129.477 33.7845 129.298 33.7847C129.071 33.7847 128.895 33.729 128.771 33.6143C128.646 33.4999 128.565 33.3455 128.542 33.1777L128.51 32.8272C128.262 33.1538 127.955 33.404 127.589 33.5776C127.222 33.7521 126.819 33.8414 126.412 33.8389ZM126.732 32.9762C127.015 32.9762 127.283 32.9252 127.535 32.8225C127.788 32.7197 127.984 32.5755 128.126 32.3915C128.275 32.264 128.349 32.1286 128.349 31.9868V31.2524C128.144 31.1722 127.932 31.1114 127.716 31.0708C127.5 31.0288 127.281 31.0075 127.061 31.007C126.643 31.007 126.301 31.0971 126.034 31.2787C125.768 31.4595 125.635 31.6985 125.635 31.9972C125.635 32.2736 125.737 32.5062 125.944 32.6942C126.15 32.8822 126.412 32.9762 126.732 32.9762ZM133.097 33.8389C132.72 33.8389 132.373 33.7624 132.054 33.6103C131.737 33.4606 131.455 33.2488 131.223 32.9873C130.984 32.7174 130.798 32.405 130.675 32.0665C130.541 31.7036 130.475 31.3196 130.478 30.933C130.478 30.5434 130.539 30.1754 130.663 29.8313C130.788 29.4864 130.961 29.1837 131.185 28.9208C131.408 28.6579 131.67 28.4508 131.972 28.2979C132.281 28.1438 132.623 28.0655 132.968 28.0692C133.415 28.0692 133.809 28.1776 134.149 28.3935C134.479 28.5988 134.753 28.8823 134.948 29.2187V25.9615H136.118V32.3485C136.118 32.4831 136.142 32.5795 136.188 32.6361C136.234 32.6926 136.317 32.7245 136.438 32.7316V33.7321C136.341 33.7498 136.243 33.7642 136.145 33.7752C136.083 33.7815 136.021 33.785 135.959 33.7855C135.725 33.7855 135.533 33.7258 135.384 33.6047C135.312 33.5487 135.253 33.4779 135.211 33.3971C135.168 33.3163 135.144 33.2274 135.139 33.1363L135.118 32.7213C134.916 33.065 134.626 33.3481 134.277 33.541C133.916 33.7412 133.509 33.8439 133.097 33.8389ZM133.385 32.8384C133.555 32.8384 133.726 32.8097 133.896 32.7531C134.066 32.6966 134.223 32.6185 134.364 32.519C134.507 32.4194 134.629 32.3031 134.732 32.1677C134.834 32.033 134.908 31.8873 134.95 31.7311V30.2734C134.886 30.0965 134.795 29.931 134.678 29.7835C134.453 29.4948 134.15 29.2769 133.805 29.1558C133.642 29.0998 133.472 29.071 133.299 29.0705C133.065 29.0705 132.851 29.1239 132.655 29.2307C132.459 29.3374 132.291 29.4792 132.149 29.656C132.007 29.8337 131.896 30.036 131.814 30.263C131.732 30.4901 131.692 30.7243 131.692 30.9656C131.689 31.4524 131.867 31.9229 132.192 32.2856C132.347 32.456 132.527 32.5906 132.73 32.6902C132.932 32.7898 133.15 32.8384 133.385 32.8384ZM140.634 29.1765C140.179 29.1916 139.777 29.2952 139.425 29.4911C139.075 29.6863 138.824 29.9651 138.675 30.3268V33.7329H137.504V28.1656H138.589V29.4107C138.781 29.0283 139.032 28.7208 139.34 28.4906C139.648 28.2596 139.98 28.1338 140.335 28.1123H140.511C140.557 28.1123 140.597 28.1162 140.633 28.1234V29.1765H140.634ZM142.784 33.8389C142.528 33.8412 142.274 33.7961 142.034 33.7059C141.813 33.6231 141.611 33.4984 141.438 33.3386C141.272 33.1825 141.14 32.9977 141.045 32.785C140.949 32.5723 140.9 32.3413 140.9 32.0936C140.9 31.8307 140.957 31.5933 141.071 31.3798C141.185 31.1664 141.346 30.9823 141.555 30.8262C141.765 30.6709 142.012 30.549 142.301 30.4646C142.588 30.3801 142.905 30.3371 143.253 30.3371C143.754 30.3371 144.251 30.4233 144.722 30.592V30.2097C144.722 29.7978 144.605 29.4768 144.371 29.2458C144.137 29.0156 143.8 28.8993 143.359 28.8993C143.061 28.8993 142.769 28.9542 142.481 29.065C142.194 29.1749 141.898 29.3326 141.593 29.5389L141.23 28.7933C141.947 28.3106 142.693 28.0692 143.466 28.0692C144.232 28.0692 144.829 28.2644 145.254 28.6547C145.68 29.0451 145.893 29.6051 145.893 30.3363V32.3477C145.893 32.597 145.996 32.7245 146.202 32.7308V33.7314C146.027 33.7666 145.849 33.7845 145.67 33.7847C145.443 33.7847 145.267 33.729 145.143 33.6143C145.018 33.4999 144.937 33.3455 144.914 33.1777L144.882 32.8272C144.634 33.1538 144.327 33.404 143.962 33.5776C143.594 33.7521 143.191 33.8414 142.784 33.8389ZM143.104 32.9762C143.387 32.9762 143.655 32.9252 143.907 32.8225C144.16 32.7197 144.356 32.5755 144.498 32.3915C144.647 32.264 144.722 32.1286 144.722 31.9868V31.2524C144.517 31.1722 144.305 31.1114 144.088 31.0708C143.873 31.0288 143.653 31.0075 143.434 31.007C143.015 31.007 142.673 31.0971 142.406 31.2787C142.14 31.4595 142.007 31.6985 142.007 31.9972C142.007 32.2736 142.11 32.5062 142.316 32.6942C142.522 32.8822 142.784 32.9762 143.104 32.9762ZM152.194 33.7321H151.023V30.6135C151.023 30.0886 150.94 29.7062 150.773 29.4688C150.607 29.2307 150.36 29.112 150.033 29.112C149.863 29.112 149.692 29.1438 149.522 29.2076C149.351 29.2713 149.192 29.3621 149.042 29.4792C148.891 29.5988 148.757 29.7384 148.643 29.8942C148.526 30.0546 148.434 30.2322 148.372 30.4208V33.7314H147.201V28.164H148.266V29.2816C148.482 28.9021 148.803 28.5933 149.191 28.3927C149.604 28.1745 150.065 28.0631 150.533 28.0684C150.866 28.0684 151.14 28.129 151.352 28.2501C151.565 28.3711 151.734 28.5352 151.858 28.7447C151.982 28.9542 152.069 29.1948 152.119 29.4688C152.169 29.7421 152.194 30.0312 152.194 30.3363V33.7321H152.194ZM154.931 33.8389C154.674 33.8412 154.42 33.7961 154.18 33.7059C153.96 33.6231 153.757 33.4984 153.584 33.3386C153.418 33.1825 153.286 32.9977 153.191 32.785C153.095 32.5723 153.047 32.3413 153.047 32.0936C153.047 31.8307 153.103 31.5933 153.217 31.3798C153.331 31.1664 153.493 30.9823 153.701 30.8262C153.911 30.6709 154.159 30.549 154.447 30.4646C154.734 30.3801 155.052 30.3371 155.399 30.3371C155.9 30.3371 156.397 30.4233 156.869 30.592V30.2097C156.869 29.7978 156.752 29.4768 156.517 29.2458C156.283 29.0156 155.946 28.8993 155.506 28.8993C155.208 28.8993 154.915 28.9542 154.627 29.065C154.34 29.1749 154.044 29.3326 153.739 29.5389L153.376 28.7933C154.093 28.3106 154.839 28.0692 155.612 28.0692C156.379 28.0692 156.975 28.2644 157.401 28.6547C157.826 29.0451 158.04 29.6051 158.04 30.3363V32.3477C158.04 32.597 158.142 32.7245 158.349 32.7308V33.7314C158.174 33.7666 157.995 33.7845 157.817 33.7847C157.59 33.7847 157.414 33.729 157.289 33.6143C157.164 33.4999 157.084 33.3455 157.061 33.1777L157.029 32.8272C156.78 33.1538 156.474 33.404 156.108 33.5776C155.74 33.7521 155.338 33.8414 154.931 33.8389ZM155.25 32.9762C155.534 32.9762 155.801 32.9252 156.054 32.8225C156.306 32.7197 156.502 32.5755 156.644 32.3915C156.794 32.264 156.868 32.1286 156.868 31.9868V31.2524C156.663 31.1722 156.451 31.1114 156.235 31.0708C156.019 31.0288 155.8 31.0075 155.58 31.007C155.162 31.007 154.819 31.0971 154.552 31.2787C154.286 31.4595 154.153 31.6985 154.153 31.9972C154.153 32.2736 154.256 32.5062 154.462 32.6942C154.669 32.8822 154.931 32.9762 155.25 32.9762Z" fill="#929292"/>
<path d="M17.9437 35.0717C8.4986 35.0717 0.813965 27.3879 0.813965 17.9428C0.813965 8.49774 8.4978 0.813904 17.9437 0.813904C27.3896 0.813904 35.0742 8.49774 35.0742 17.9428C35.0742 27.3879 27.3896 35.0717 17.9437 35.0717Z" fill="white"/>
<path d="M17.9438 1.62742C26.9556 1.62742 34.2602 8.93208 34.2602 17.943C34.2602 26.954 26.9556 34.2594 17.9438 34.2594C8.93288 34.2594 1.62742 26.954 1.62742 17.9438C1.62742 8.93288 8.93288 1.62742 17.9438 1.62742ZM17.9438 0C8.05027 0 0 8.04947 0 17.943C0 27.8358 8.04947 35.8861 17.9438 35.8861C27.8382 35.8861 35.8884 27.8374 35.8884 17.943C35.8884 8.04867 27.8382 0 17.9438 0Z" fill="white"/>
<path fill-rule="evenodd" clip-rule="evenodd" d="M13.4114 2.26949C15.7982 5.07475 17.6525 8.29238 18.8831 11.764C21.6624 11.5505 24.1477 11.7632 26.5016 12.1535C26.2021 11.2417 25.8432 10.3505 25.427 9.48573C23.2266 9.24528 21.0017 9.36555 18.8401 9.84181C17.9368 10.0386 19.2902 9.55105 19.4375 9.50406L19.4598 9.49627C20.3544 9.18274 21.3635 8.82911 22.3952 8.6079C23.1766 8.43803 23.9663 8.30881 24.7611 8.22076L24.7611 8.22075C27.1242 7.9604 29.2125 8.10937 31.1854 8.42079C28.443 4.61262 24.1013 2.03578 19.1438 1.67541L19.1436 1.67524C18.7444 1.64457 18.3443 1.62836 17.9439 1.62665C16.4104 1.62767 14.8847 1.84407 13.4114 2.26949ZM19.4375 13.5109C19.6908 14.3991 19.9067 15.3064 20.0804 16.2272C22.6737 16.5506 25.1285 17.0715 27.5713 17.5947L27.5713 17.595L27.5929 17.5996C29.7818 18.0625 31.9608 18.5233 34.2347 18.8242C34.2515 18.531 34.2586 18.2379 34.2586 17.9416C34.2586 17.3282 34.2212 16.722 34.1551 16.1237C32.5159 16.0555 30.8838 15.8697 29.2712 15.5677C28.6001 15.4394 27.9314 15.2984 27.2656 15.145L27.2655 15.1447C26.6487 15.0046 26.0343 14.8576 25.4182 14.7103C23.4869 14.2482 21.538 13.782 19.4375 13.5109ZM33.6851 13.6535C33.4285 12.7066 33.0873 11.7847 32.6655 10.899C31.8736 10.7448 31.0924 10.5669 30.3073 10.3881C28.7357 10.0303 27.1483 9.66882 25.4277 9.48662C25.844 10.3513 26.203 11.2425 26.5023 12.1544C28.1309 12.423 29.7008 12.7745 31.2648 13.1247L31.2648 13.1247C32.0708 13.3052 32.8751 13.4853 33.6851 13.6535ZM11.3231 13.401C11.1359 13.4647 9.36748 14.0765 10.544 13.8343C13.9287 13.1437 16.8012 13.1723 19.4371 13.5109C19.6929 14.406 19.9074 15.3124 20.0799 16.2272C16.3384 15.7652 12.3029 15.7262 7.55923 16.7514C5.96303 17.0958 4.40619 17.6369 3.00719 18.1232C2.94352 18.1453 2.88018 18.1673 2.81718 18.1892C2.42213 18.3251 2.03135 18.473 1.6454 18.6329L1.64376 18.5938C1.63469 18.3786 1.62549 18.16 1.62549 17.9415C1.62549 10.5054 6.60732 4.23229 13.4109 2.26951C15.7979 5.07467 17.6522 8.29232 18.8827 11.764C17.6367 11.8602 16.3979 12.0345 15.1738 12.2857C13.9115 12.5421 12.6776 12.9515 11.5626 13.3215C11.4822 13.3482 11.4023 13.3747 11.3231 13.401Z" fill="url(#paint0_linear_1082_6443)"/>
<path d="M2.90283 24.2281C3.34677 25.2939 3.90244 26.3096 4.56052 27.2583C8.2949 26.0642 11.7497 25.7201 16.1548 26.2554C16.7658 26.3311 21.002 27.1245 19.1675 26.903C13.6344 26.2331 9.8578 27.6454 6.02544 29.0602C9.00546 32.2521 13.2361 34.2587 17.9439 34.2587C19.5512 30.6904 20.4476 26.8432 20.583 22.932C13.5651 21.4456 8.59521 23.3367 2.90283 24.2281Z" fill="url(#paint1_linear_1082_6443)"/>
<path fill-rule="evenodd" clip-rule="evenodd" d="M1.65039 18.7723C1.71332 18.7627 1.78103 18.7484 1.86467 18.73C9.34981 17.1154 14.8664 18.3772 20.2695 19.6131C20.3548 19.6326 20.4401 19.6521 20.5254 19.6716C20.5764 20.3909 20.6115 21.115 20.6115 21.8455C20.6115 22.0195 20.6053 22.191 20.599 22.3634C20.596 22.4459 20.5931 22.5285 20.5907 22.6118C19.8674 22.3577 19.1943 22.1314 18.9673 22.0709C13.8485 20.6339 9.7134 20.4283 5.0526 21.1994C4.06116 21.3713 3.07392 21.5665 2.0917 21.7849C1.85591 20.8123 1.70297 19.807 1.65039 18.7723ZM20.5277 19.6718C20.5779 20.3895 20.6137 21.1152 20.6137 21.8449C20.6137 22.0195 20.6075 22.1912 20.6013 22.3637L20.6013 22.3638L20.6012 22.3643C20.5983 22.4465 20.5953 22.529 20.593 22.612C22.0699 23.1266 23.7626 23.7535 22.3526 23.3592C21.7686 23.1973 21.1793 23.0549 20.5858 22.9322C20.4513 26.8437 19.5549 30.6914 17.9467 34.2596C19.426 34.2596 20.8575 34.062 22.2172 33.6916L22.2187 33.6899C28.1154 32.092 32.6869 27.2731 33.9251 21.2377C31.7987 21.3274 29.6684 21.2423 27.5559 20.9833L27.5559 20.983C26.7231 20.8859 25.893 20.7664 25.0666 20.6245C23.5316 20.3537 22.0324 20.0151 20.5277 19.6718Z" fill="url(#paint2_linear_1082_6443)"/>
<defs>
<linearGradient id="paint0_linear_1082_6443" x1="1.62469" y1="10.4504" x2="20.0791" y2="10.4504" gradientUnits="userSpaceOnUse">
<stop stop-color="#FF9C1A"/>
<stop offset="0.066" stop-color="#FFA524"/>
<stop offset="0.245" stop-color="#FFB93A"/>
<stop offset="0.443" stop-color="#FFC749"/>
<stop offset="0.672" stop-color="#FFCF52"/>
<stop offset="1" stop-color="#FFD255"/>
</linearGradient>
<linearGradient id="paint1_linear_1082_6443" x1="2.90283" y1="28.3193" x2="20.5822" y2="28.3193" gradientUnits="userSpaceOnUse">
<stop stop-color="#4499E3"/>
<stop offset="0.13" stop-color="#469FE8"/>
<stop offset="0.619" stop-color="#4DAEF7"/>
<stop offset="1" stop-color="#4FB4FC"/>
</linearGradient>
<linearGradient id="paint2_linear_1082_6443" x1="1.65119" y1="20.2889" x2="20.6115" y2="20.2889" gradientUnits="userSpaceOnUse">
<stop stop-color="#4499E3"/>
<stop offset="0.13" stop-color="#469FE8"/>
<stop offset="0.619" stop-color="#4DAEF7"/>
<stop offset="1" stop-color="#4FB4FC"/>
</linearGradient>
</defs>
</svg>
